<svg width="683" height="605" viewBox="0 0 683 605" fill="none" xmlns="http://www.w3.org/2000/svg">
<rect width="683" height="605" fill="#CAC0DB"/>
<path d="M94.2754 277.362C95.7975 277.362 97.0313 276.129 97.0313 274.606C97.0313 273.084 95.7975 271.851 94.2754 271.851C92.7534 271.851 91.5195 273.084 91.5195 274.606C91.5195 276.129 92.7534 277.362 94.2754 277.362Z" fill="#343943"/>
<path d="M126.795 324.488H61.7559C60.2338 324.488 59 325.722 59 327.244C59 328.766 60.2338 330 61.7559 330H126.795C128.317 330 129.551 328.766 129.551 327.244C129.551 325.722 128.317 324.488 126.795 324.488Z" fill="#343943"/>
<path d="M129.551 277.224C129.551 276.135 128.909 275.148 127.913 274.706L95.3247 260.237C94.6111 259.92 93.797 259.921 93.0842 260.239L60.6336 274.707C59.6401 275.15 59 276.137 59 277.224V284.528C59 284.551 59.0029 284.573 59.0034 284.596C59.0029 284.62 59 284.642 59 284.665C59 286.187 60.2338 287.421 61.7559 287.421C63.374 287.421 64.0984 288.805 64.0984 290.177V315.878C64.0984 315.936 64.1036 315.992 64.1071 316.049C64.1035 316.106 64.0984 316.163 64.0984 316.22C64.0984 317.742 65.3322 318.976 66.8543 318.976H121.972C123.494 318.976 124.728 317.742 124.728 316.22C124.728 314.698 123.494 313.464 121.972 313.464H113.704V290.177C113.704 288.658 114.941 287.421 116.46 287.421C117.98 287.421 119.216 288.658 119.216 290.177V302.374C119.216 303.896 120.45 305.13 121.972 305.13C123.494 305.13 124.728 303.896 124.728 302.374V290.177C124.728 289.531 124.877 287.421 126.795 287.421C128.317 287.421 129.551 286.187 129.551 284.665C129.551 284.642 129.548 284.62 129.547 284.596C129.548 284.573 129.551 284.551 129.551 284.528V277.224ZM75.122 313.464H69.6102V290.177C69.6102 288.658 70.8465 287.421 72.3661 287.421C73.8857 287.421 75.122 288.658 75.122 290.177V313.464ZM86.1455 313.464H80.6337V290.177C80.6337 288.658 81.87 287.421 83.3896 287.421C84.9092 287.421 86.1455 288.658 86.1455 290.177V313.464ZM97.1691 313.464H91.6573V290.177C91.6573 288.658 92.8936 287.421 94.4132 287.421C95.9328 287.421 97.1691 288.658 97.1691 290.177V313.464ZM108.193 313.464H102.681V290.177C102.681 288.658 103.917 287.421 105.437 287.421C106.956 287.421 108.193 288.658 108.193 290.177V313.464ZM124.039 281.772H64.5118V279.013L94.209 265.772L124.039 279.016V281.772Z" fill="#343943"/>
<path d="M169.96 304.224H194.512C196.24 304.224 197.32 302.856 197.32 301.2C197.32 299.4 196.312 298.104 194.512 298.104H169.96V283.2C169.96 281.472 170.68 280.68 172.408 280.68H197.752C199.624 280.68 200.632 279.312 200.632 277.512C200.632 275.712 199.624 274.416 197.752 274.416H170.536C165.424 274.416 163.192 276.648 163.192 282.192V322.8C163.192 328.272 165.424 330.504 170.536 330.504H198.4C200.272 330.504 201.28 329.064 201.28 327.336C201.28 325.536 200.272 324.24 198.4 324.24H172.624C171.04 324.24 169.96 323.592 169.96 321.936V304.224Z" fill="#343943"/>
<path d="M208.657 328.056C208.657 330 209.953 330.936 211.969 330.936C213.913 330.936 215.209 330 215.209 328.056V276.864C215.209 274.92 213.913 273.984 211.969 273.984C209.953 273.984 208.657 274.92 208.657 276.864V328.056Z" fill="#343943"/>
<path d="M225.534 328.056C225.534 330 226.758 330.936 228.774 330.936C230.718 330.936 232.086 330 232.086 328.056V292.992C232.086 291.12 230.718 290.184 228.774 290.184C226.758 290.184 225.534 291.12 225.534 292.992V328.056ZM228.846 273.912C226.11 273.912 223.95 276 223.95 278.736C223.95 281.544 226.11 283.632 228.846 283.632C231.51 283.632 233.67 281.544 233.67 278.736C233.67 276 231.51 273.912 228.846 273.912Z" fill="#343943"/>
<path d="M252.273 309.912L240.249 326.04C239.817 326.616 239.601 327.192 239.601 327.768C239.601 328.704 240.177 329.568 240.897 330.216C241.545 330.648 242.337 330.936 243.129 330.936C243.921 330.936 244.785 330.576 245.433 329.712L256.233 314.52L266.961 329.712C267.537 330.576 268.401 330.936 269.265 330.936C269.985 330.936 270.705 330.648 271.353 330.216C272.217 329.64 272.721 328.704 272.721 327.696C272.721 327.048 272.505 326.4 272.073 325.824L260.265 309.912L271.281 295.152C271.713 294.576 271.929 294 271.929 293.424C271.929 292.344 271.281 291.336 270.417 290.76C269.769 290.328 269.121 290.112 268.401 290.112C267.537 290.112 266.673 290.472 266.025 291.336L256.233 305.376L246.081 291.408C245.433 290.544 244.569 290.184 243.705 290.184C243.057 290.184 242.337 290.4 241.689 290.832C240.753 291.408 240.177 292.416 240.177 293.424C240.177 294 240.393 294.576 240.825 295.152L252.273 309.912Z" fill="#343943"/>
<path d="M280.237 328.056C280.237 330 281.461 330.936 283.477 330.936C285.421 330.936 286.789 330 286.789 328.056V292.992C286.789 291.12 285.421 290.184 283.477 290.184C281.461 290.184 280.237 291.12 280.237 292.992V328.056ZM283.549 273.912C280.813 273.912 278.653 276 278.653 278.736C278.653 281.544 280.813 283.632 283.549 283.632C286.213 283.632 288.373 281.544 288.373 278.736C288.373 276 286.213 273.912 283.549 273.912Z" fill="#343943"/>
<path d="M298.12 328.056C298.12 330 299.488 330.936 301.504 330.936C303.304 330.936 304.744 330 304.744 328.056V308.184C304.816 305.16 305.896 302.496 307.768 300.192C309.568 297.888 311.944 296.304 315.04 296.232C316.552 296.232 317.488 296.448 318.496 296.664C318.712 296.736 318.928 296.736 319.144 296.736C320.656 296.736 321.664 295.44 321.952 293.928C322.024 293.496 322.096 293.064 322.096 292.704C322.096 291.336 321.448 290.328 319.792 290.112C318.784 289.896 317.992 289.752 316.912 289.752C316.408 289.752 315.904 289.752 315.328 289.824C309.136 290.04 305.464 294.504 304.312 297.96C304.456 296.808 304.744 295.584 304.744 294.576V292.992C304.744 291.12 303.304 290.184 301.504 290.184C299.488 290.184 298.12 291.12 298.12 292.992V328.056Z" fill="#343943"/>
<path d="M324.909 305.952C323.181 305.952 322.173 307.176 322.173 309.192C322.173 311.208 323.253 312.36 324.981 312.36H344.493C346.221 312.36 347.301 311.208 347.301 309.192C347.301 307.176 346.293 305.952 344.565 305.952H324.909Z" fill="#343943"/>
<path d="M363.813 304.656H388.869C390.669 304.656 391.677 303.288 391.677 301.632C391.677 299.832 390.741 298.536 388.869 298.536H363.813V282.984C363.813 281.544 364.677 280.68 366.045 280.68H392.901C394.845 280.68 395.853 279.312 395.853 277.512C395.853 275.712 394.845 274.416 392.901 274.416H364.317C359.205 274.416 356.973 276.576 356.973 282.12V327.84C356.973 329.928 358.413 330.936 360.357 330.936C362.373 330.936 363.813 329.928 363.813 327.912V304.656Z" fill="#343943"/>
<path d="M402.932 328.056C402.932 330 404.156 330.936 406.172 330.936C408.116 330.936 409.484 330 409.484 328.056V292.992C409.484 291.12 408.116 290.184 406.172 290.184C404.156 290.184 402.932 291.12 402.932 292.992V328.056ZM406.244 273.912C403.508 273.912 401.348 276 401.348 278.736C401.348 281.544 403.508 283.632 406.244 283.632C408.908 283.632 411.068 281.544 411.068 278.736C411.068 276 408.908 273.912 406.244 273.912Z" fill="#343943"/>
<path d="M452.927 303.648C452.927 294.792 448.319 289.608 439.751 289.608C432.911 289.608 428.591 292.848 426.071 297.96C426.143 296.592 426.359 295.872 426.359 294.936V292.992C426.359 291.12 425.063 290.184 423.191 290.184C421.175 290.184 419.807 291.12 419.807 292.992V328.056C419.807 330 421.103 330.936 423.119 330.936C424.991 330.936 426.359 330 426.359 328.056V307.896C426.359 305.088 427.079 303 428.879 300.552C431.327 297.168 434.567 295.44 438.455 295.44C443.855 295.44 446.303 298.896 446.303 305.016V328.056C446.303 330 447.671 330.936 449.615 330.936C451.487 330.936 452.927 330 452.927 328.056V303.648Z" fill="#343943"/>
<path d="M487.315 305.016C479.611 305.16 475.867 305.592 471.907 306.672C465.067 308.544 461.035 312.864 461.035 319.632C461.035 327.048 465.859 331.512 473.779 331.512C480.907 331.512 484.723 328.704 487.459 325.608C487.531 327.048 487.675 328.344 487.891 329.208C488.179 330.504 489.475 330.936 490.915 330.936C491.131 330.936 491.347 330.936 491.563 330.936C493.363 330.792 494.443 329.784 494.443 328.632C494.443 328.416 494.371 328.128 494.299 327.912C493.867 326.544 493.507 324.096 493.507 321.576V301.92C493.507 293.424 488.755 289.608 479.107 289.608C473.275 289.608 470.035 290.832 467.515 292.776C465.859 294.072 463.987 296.16 463.267 298.392C463.195 298.68 463.123 298.968 463.123 299.256C463.123 300.552 464.131 301.56 465.499 301.992C466.003 302.208 466.579 302.28 467.155 302.28C468.379 302.28 469.459 301.776 469.963 300.408C471.187 297.096 473.779 295.08 479.035 295.08C484.723 295.08 487.315 297.168 487.315 301.92V305.016ZM487.315 315.024C487.315 317.76 486.811 319.128 485.443 320.856C483.139 323.736 479.395 325.968 474.859 325.968C470.539 325.968 467.659 323.448 467.659 319.704C467.659 316.248 469.171 314.016 472.051 312.576C474.931 311.136 478.891 310.416 487.315 310.2V315.024Z" fill="#343943"/>
<path d="M537.373 303.648C537.373 294.792 532.765 289.608 524.197 289.608C517.357 289.608 513.037 292.848 510.517 297.96C510.589 296.592 510.805 295.872 510.805 294.936V292.992C510.805 291.12 509.509 290.184 507.637 290.184C505.621 290.184 504.253 291.12 504.253 292.992V328.056C504.253 330 505.549 330.936 507.565 330.936C509.437 330.936 510.805 330 510.805 328.056V307.896C510.805 305.088 511.525 303 513.325 300.552C515.773 297.168 519.013 295.44 522.901 295.44C528.301 295.44 530.749 298.896 530.749 305.016V328.056C530.749 330 532.117 330.936 534.061 330.936C535.933 330.936 537.373 330 537.373 328.056V303.648Z" fill="#343943"/>
<path d="M545.553 310.704C545.553 323.088 552.105 331.656 563.769 331.656C573.561 331.656 577.377 326.472 579.321 321.504C579.537 321 579.609 320.64 579.609 320.208C579.609 318.912 578.601 318.048 577.305 317.76C576.801 317.544 576.297 317.472 575.793 317.472C574.641 317.472 573.633 318.048 573.129 319.416C571.761 323.304 569.529 326.04 563.913 326.04C556.281 326.04 552.249 320.064 552.249 310.632C552.249 301.488 556.353 295.152 563.841 295.152C569.313 295.152 571.473 297.96 572.841 301.632C573.345 302.856 574.281 303.288 575.361 303.288C575.865 303.288 576.441 303.216 576.945 303.072C578.025 302.64 579.105 301.776 579.105 300.408C579.105 300.12 579.033 299.688 578.889 299.328C577.089 294.792 573.201 289.536 563.697 289.536C551.889 289.536 545.553 298.392 545.553 310.704Z" fill="#343943"/>
<path d="M617.172 311.784C619.404 311.784 620.772 310.416 620.772 307.824C620.772 307.608 620.772 307.464 620.772 307.248C620.052 297.816 614.148 289.608 603.636 289.608C591.9 289.608 585.42 298.32 585.42 310.776C585.42 323.232 592.26 331.584 604.068 331.584C613.428 331.584 617.604 326.832 619.908 322.08C620.196 321.648 620.268 321.216 620.268 320.784C620.268 319.488 619.26 318.624 618.036 318.264C617.532 318.12 617.028 317.976 616.524 317.976C615.516 317.976 614.58 318.48 613.932 319.776C612.204 323.592 609.324 326.184 604.14 326.184C596.364 326.184 591.972 320.64 591.828 311.784H617.172ZM592.044 306.528C592.98 299.472 596.724 294.864 603.636 294.864C610.26 294.864 613.356 300.12 614.22 305.232C614.22 305.376 614.22 305.52 614.22 305.592C614.22 306.24 613.932 306.528 613.14 306.528H592.044Z" fill="#343943"/>
</svg>
