<svg width="683" height="605" viewBox="0 0 683 605" fill="none" xmlns="http://www.w3.org/2000/svg">
<rect width="683" height="605" fill="#FBFBFB"/>
<path fill-rule="evenodd" clip-rule="evenodd" d="M340 186H117V403H340H344H563H567V399V190V186H563H344H340ZM344 190V399H563V190H344Z" fill="#62407D"/>
<path d="M158.459 373H164.414V346.085H169.87V282.291H164.414V254.38H158.459V282.291H153V346.085H158.46L158.459 373ZM192.194 333.624H198.148V306.21H203.607V242.414H198.148V215H192.194V242.414H186.738V306.21H192.194V333.624ZM225.684 353.561H231.638V327.149H237.095V263.347H231.638V234.937H225.684V263.347H220.224V327.143H225.684V353.561ZM263.639 364.776H269.595V338.11H275.053V274.313H269.595V246.152H263.639V274.314H258.184V338.11H263.639V364.776ZM302.59 333.878H308.543V306.215H314V242.414H308.543V215.251H302.59V242.414H297.13V306.211H302.59V333.878Z" fill="#FBFBFB"/>
<path d="M399.104 243.135H386.448V251.705H401.302V257H379.856V225.008H401.258V230.347H386.448V237.972H399.104V243.135ZM411.453 257H405.081V223.25H411.453V257ZM423.406 257H417.034V233.226H423.406V257ZM416.661 227.073C416.661 226.121 416.976 225.337 417.605 224.722C418.25 224.107 419.122 223.799 420.22 223.799C421.304 223.799 422.168 224.107 422.813 224.722C423.458 225.337 423.78 226.121 423.78 227.073C423.78 228.04 423.45 228.831 422.791 229.446C422.146 230.062 421.29 230.369 420.22 230.369C419.151 230.369 418.287 230.062 417.627 229.446C416.983 228.831 416.661 228.04 416.661 227.073ZM437.71 240.323L441.709 233.226H448.499L441.731 244.871L448.785 257H441.973L437.732 249.529L433.514 257H426.68L433.733 244.871L426.988 233.226H433.799L437.71 240.323ZM458.255 257H451.883V233.226H458.255V257ZM451.509 227.073C451.509 226.121 451.824 225.337 452.454 224.722C453.099 224.107 453.97 223.799 455.069 223.799C456.153 223.799 457.017 224.107 457.662 224.722C458.306 225.337 458.628 226.121 458.628 227.073C458.628 228.04 458.299 228.831 457.64 229.446C456.995 230.062 456.138 230.369 455.069 230.369C454 230.369 453.135 230.062 452.476 229.446C451.832 228.831 451.509 228.04 451.509 227.073ZM476.866 239.18C476.001 239.063 475.24 239.004 474.581 239.004C472.178 239.004 470.604 239.817 469.856 241.443V257H463.506V233.226H469.505L469.681 236.06C470.955 233.877 472.72 232.786 474.976 232.786C475.679 232.786 476.338 232.881 476.954 233.072L476.866 239.18ZM403.938 283.347H394.139V310H387.547V283.347H377.879V278.008H403.938V283.347ZM419.209 292.18C418.345 292.063 417.583 292.004 416.924 292.004C414.522 292.004 412.947 292.817 412.2 294.443V310H405.85V286.226H411.849L412.024 289.06C413.299 286.877 415.064 285.786 417.32 285.786C418.023 285.786 418.682 285.881 419.297 286.072L419.209 292.18ZM435.403 310C435.11 309.429 434.898 308.718 434.766 307.869C433.228 309.583 431.229 310.439 428.768 310.439C426.438 310.439 424.505 309.766 422.967 308.418C421.443 307.07 420.682 305.371 420.682 303.32C420.682 300.801 421.612 298.867 423.472 297.52C425.347 296.172 428.05 295.491 431.58 295.476H434.502V294.114C434.502 293.015 434.217 292.136 433.646 291.477C433.089 290.818 432.203 290.488 430.987 290.488C429.917 290.488 429.075 290.745 428.46 291.257C427.859 291.77 427.559 292.473 427.559 293.367H421.209C421.209 291.99 421.634 290.715 422.483 289.543C423.333 288.372 424.534 287.456 426.087 286.797C427.64 286.123 429.383 285.786 431.316 285.786C434.246 285.786 436.568 286.526 438.282 288.005C440.01 289.47 440.875 291.536 440.875 294.202V304.507C440.889 306.763 441.204 308.469 441.819 309.626V310H435.403ZM430.152 305.583C431.089 305.583 431.954 305.378 432.745 304.968C433.536 304.543 434.122 303.979 434.502 303.276V299.189H432.129C428.951 299.189 427.259 300.288 427.054 302.485L427.032 302.859C427.032 303.65 427.31 304.302 427.867 304.814C428.423 305.327 429.185 305.583 430.152 305.583ZM444.764 297.937C444.764 294.231 445.591 291.279 447.247 289.082C448.917 286.885 451.194 285.786 454.08 285.786C456.395 285.786 458.306 286.65 459.815 288.379V276.25H466.187V310H460.452L460.145 307.473C458.562 309.451 456.526 310.439 454.036 310.439C451.238 310.439 448.99 309.341 447.291 307.144C445.606 304.932 444.764 301.863 444.764 297.937ZM451.114 298.398C451.114 300.625 451.502 302.332 452.278 303.518C453.055 304.705 454.183 305.298 455.662 305.298C457.625 305.298 459.009 304.47 459.815 302.815V293.433C459.024 291.777 457.654 290.95 455.706 290.95C452.645 290.95 451.114 293.433 451.114 298.398ZM477.811 310H471.438V286.226H477.811V310ZM471.065 280.073C471.065 279.121 471.38 278.337 472.01 277.722C472.654 277.107 473.526 276.799 474.625 276.799C475.708 276.799 476.573 277.107 477.217 277.722C477.862 278.337 478.184 279.121 478.184 280.073C478.184 281.04 477.854 281.831 477.195 282.446C476.551 283.062 475.694 283.369 474.625 283.369C473.555 283.369 472.691 283.062 472.032 282.446C471.387 281.831 471.065 281.04 471.065 280.073ZM488.907 286.226L489.104 288.972C490.804 286.848 493.082 285.786 495.938 285.786C498.458 285.786 500.333 286.526 501.563 288.005C502.793 289.485 503.423 291.697 503.453 294.641V310H497.103V294.795C497.103 293.447 496.81 292.473 496.224 291.873C495.638 291.257 494.664 290.95 493.301 290.95C491.514 290.95 490.174 291.711 489.28 293.235V310H482.93V286.226H488.907ZM507.364 297.937C507.364 294.29 508.228 291.353 509.957 289.126C511.7 286.899 514.043 285.786 516.988 285.786C519.595 285.786 521.624 286.68 523.074 288.467L523.338 286.226H529.095V309.209C529.095 311.289 528.619 313.098 527.667 314.636C526.729 316.174 525.403 317.346 523.689 318.152C521.976 318.958 519.969 319.36 517.669 319.36C515.926 319.36 514.227 319.009 512.571 318.306C510.916 317.617 509.664 316.724 508.814 315.625L511.626 311.758C513.208 313.53 515.127 314.417 517.383 314.417C519.068 314.417 520.379 313.962 521.316 313.054C522.254 312.161 522.723 310.886 522.723 309.231V307.957C521.258 309.612 519.332 310.439 516.944 310.439C514.087 310.439 511.773 309.326 510 307.1C508.243 304.858 507.364 301.892 507.364 298.201V297.937ZM513.714 298.398C513.714 300.552 514.146 302.244 515.01 303.474C515.875 304.69 517.061 305.298 518.57 305.298C520.503 305.298 521.888 304.573 522.723 303.123V293.125C521.873 291.675 520.503 290.95 518.614 290.95C517.09 290.95 515.889 291.572 515.01 292.817C514.146 294.062 513.714 295.923 513.714 298.398ZM403.938 336.347H394.139V363H387.547V336.347H377.879V331.008H403.938V336.347ZM401.741 350.893C401.741 348.535 402.195 346.433 403.104 344.587C404.012 342.741 405.315 341.313 407.015 340.302C408.729 339.292 410.713 338.786 412.969 338.786C416.177 338.786 418.792 339.768 420.813 341.73C422.85 343.693 423.985 346.359 424.219 349.729L424.263 351.354C424.263 355.002 423.245 357.932 421.209 360.144C419.173 362.341 416.441 363.439 413.013 363.439C409.585 363.439 406.846 362.341 404.795 360.144C402.759 357.946 401.741 354.958 401.741 351.179V350.893ZM408.091 351.354C408.091 353.61 408.516 355.339 409.366 356.54C410.215 357.727 411.431 358.32 413.013 358.32C414.551 358.32 415.752 357.734 416.617 356.562C417.481 355.375 417.913 353.486 417.913 350.893C417.913 348.681 417.481 346.967 416.617 345.751C415.752 344.536 414.537 343.928 412.969 343.928C411.417 343.928 410.215 344.536 409.366 345.751C408.516 346.953 408.091 348.82 408.091 351.354ZM427.186 350.893C427.186 348.535 427.64 346.433 428.548 344.587C429.456 342.741 430.76 341.313 432.459 340.302C434.173 339.292 436.158 338.786 438.414 338.786C441.622 338.786 444.236 339.768 446.258 341.73C448.294 343.693 449.429 346.359 449.664 349.729L449.708 351.354C449.708 355.002 448.689 357.932 446.653 360.144C444.617 362.341 441.885 363.439 438.458 363.439C435.03 363.439 432.291 362.341 430.24 360.144C428.204 357.946 427.186 354.958 427.186 351.179V350.893ZM433.536 351.354C433.536 353.61 433.96 355.339 434.81 356.54C435.66 357.727 436.875 358.32 438.458 358.32C439.996 358.32 441.197 357.734 442.061 356.562C442.925 355.375 443.357 353.486 443.357 350.893C443.357 348.681 442.925 346.967 442.061 345.751C441.197 344.536 439.981 343.928 438.414 343.928C436.861 343.928 435.66 344.536 434.81 345.751C433.96 346.953 433.536 348.82 433.536 351.354ZM460.32 363H453.948V329.25H460.32V363ZM478.448 356.43C478.448 355.654 478.06 355.046 477.283 354.606C476.521 354.152 475.291 353.75 473.592 353.398C467.938 352.211 465.11 349.809 465.11 346.191C465.11 344.082 465.982 342.324 467.725 340.917C469.483 339.497 471.775 338.786 474.603 338.786C477.62 338.786 480.03 339.497 481.832 340.917C483.648 342.338 484.556 344.184 484.556 346.455H478.206C478.206 345.546 477.913 344.799 477.327 344.213C476.741 343.613 475.826 343.312 474.581 343.312C473.511 343.312 472.684 343.554 472.098 344.038C471.512 344.521 471.219 345.136 471.219 345.883C471.219 346.586 471.548 347.158 472.208 347.597C472.881 348.022 474.009 348.396 475.591 348.718C477.173 349.025 478.506 349.377 479.59 349.772C482.945 351.003 484.622 353.134 484.622 356.167C484.622 358.334 483.692 360.092 481.832 361.44C479.971 362.773 477.569 363.439 474.625 363.439C472.632 363.439 470.86 363.088 469.307 362.385C467.769 361.667 466.561 360.693 465.682 359.462C464.803 358.217 464.363 356.877 464.363 355.441H470.384C470.442 356.569 470.86 357.434 471.636 358.034C472.413 358.635 473.453 358.935 474.756 358.935C475.972 358.935 476.888 358.708 477.503 358.254C478.133 357.785 478.448 357.177 478.448 356.43Z" fill="#62407D"/>
</svg>
