<svg width="683" height="605" viewBox="0 0 683 605" fill="none" xmlns="http://www.w3.org/2000/svg">
<rect width="683" height="605" fill="#FBFBFB"/>
<path d="M556.002 347.761C533.33 352.748 522.22 333.708 522.22 316.027C522.22 308.214 526.801 292.688 533.67 281.46C542.345 267.28 553.735 258 553.735 258C553.735 258 552.467 268.111 558.723 279.647C565.958 292.989 578.788 302.994 580.601 313.874C582.415 324.754 578.674 342.774 556.002 347.761Z" fill="#62407D"/>
<path d="M548.849 332.877L548.324 333.092C545.184 334.138 540.481 335.704 536.393 337.694C536.177 337.796 535.976 338.108 535.976 338.108C535.866 338.316 535.753 338.531 535.665 338.74C535.227 339.785 534.515 341.358 534.3 342.085L534.1 342.619V342.82L534.189 342.931H534.3L534.805 342.724C535.976 342.189 537.431 341.358 538.907 340.63H539.004C541.706 339.371 544.392 338.08 547.063 336.758C547.063 336.758 547.373 336.55 547.589 336.239L549.051 333.3V333.093C549.051 332.877 548.939 332.781 548.85 332.877H548.849ZM537.127 328.277C537.342 327.855 538.27 326.074 538.492 325.658V325.554C544.873 313.52 552.627 302.215 561.5 291.85L561.723 291.535C561.836 291.427 561.836 291.324 561.723 291.222C561.612 291.116 561.5 291.008 561.412 291.116H560.996C555.119 291.957 549.161 293.003 543.307 294.465C542.669 294.676 542.358 294.993 542.247 295.089C537.854 300.327 533.766 305.873 529.884 311.531C530.011 311.842 530.011 312.472 530.011 312.472C530.011 312.472 530.939 319.797 532.312 325.242C528.957 335.185 525.819 348.37 525.819 348.37V348.585C525.819 348.689 525.931 348.689 526.019 348.689H528.008C528.113 348.689 528.224 348.586 528.335 348.481L528.424 348.059C530.413 342.619 532.727 337.173 535.228 331.934C535.866 330.778 537.127 328.277 537.127 328.277" fill="#2C9261"/>
<path d="M564.551 294.051V293.632C564.551 293.524 564.438 293.416 564.35 293.319C564.239 293.319 564.127 293.319 564.023 293.416L563.816 293.732C553.332 305.771 544.657 319.167 537.765 333.51L537.542 333.82V334.139C537.631 334.236 537.631 334.236 537.765 334.236H537.854L538.166 334.139C544.02 331.729 550 329.636 555.958 327.856C556.27 327.751 556.596 327.544 556.797 327.233C559.424 322.209 565.478 312.367 565.478 312.367C565.7 312.051 565.604 311.737 565.604 311.737C565.604 311.737 564.551 300.012 564.551 294.051" fill="#2C9261"/>
<path d="M577.951 277.093C576.496 275.832 574.269 275.205 570.932 275.105C568.016 274.998 564.438 275.732 560.358 276.986C559.734 277.202 559.311 277.513 558.786 277.924C554.608 281.801 550.638 285.99 546.861 290.178L546.536 290.49C546.439 290.597 546.439 290.697 546.536 290.805C546.639 290.91 546.75 291.01 546.861 290.91L547.278 290.804C553.466 289.443 559.623 288.501 565.7 287.867C566.116 287.867 566.539 287.975 566.843 288.182C567.178 288.501 567.265 288.817 567.265 289.229C567.178 295.305 567.377 301.374 567.89 307.235V307.654C567.89 307.756 568.016 307.864 568.103 307.864H568.216C568.327 307.864 568.416 307.864 568.416 307.756L568.631 307.444C572.08 302.529 575.748 297.813 579.724 293.32C580.139 292.793 580.251 292.478 580.361 292.055C581.601 284.413 579.724 278.559 577.951 277.093Z" fill="#2C9261"/>
<path d="M223.931 300.084C221.223 297.384 218.418 296.518 214.772 296.518C210.347 296.518 206.156 298.463 204.075 301.639V296.982H198.492V335.143H204.075V311.721C204.075 305.902 207.62 301.484 213.204 301.484C216.153 301.484 217.72 302.178 219.809 304.275L223.931 300.084ZM253.905 316.066C253.905 310.169 253.136 304.815 249.239 300.863C246.613 298.226 242.966 296.519 238.301 296.519C233.656 296.519 230.01 298.226 227.374 300.862C223.505 304.814 222.739 310.168 222.739 316.065C222.739 321.963 223.505 327.305 227.373 331.264C230.01 333.899 233.657 335.608 238.299 335.608C242.966 335.608 246.613 333.9 249.239 331.264C253.136 327.306 253.905 321.963 253.905 316.066ZM248.319 316.066C248.319 320.329 248.077 325.054 245.299 327.853C243.513 329.638 241.027 330.648 238.301 330.648C235.596 330.648 233.181 329.638 231.424 327.853C228.615 325.054 228.325 320.329 228.325 316.066C228.325 311.795 228.615 307.068 231.424 304.275C233.18 302.487 235.596 301.483 238.301 301.483C241.027 301.483 243.513 302.487 245.299 304.275C248.077 307.068 248.32 311.795 248.32 316.066H248.319ZM292.401 316.066C292.401 310.087 291.635 303.73 287.766 299.862C285.756 297.847 282.324 296.519 278.455 296.519C274.265 296.519 270.761 297.448 267.659 301.402V279.931H262.074V335.143H267.659V330.568C270.761 334.597 274.265 335.608 278.455 335.608C282.324 335.608 285.756 334.284 287.766 332.265C291.635 328.396 292.401 322.033 292.401 316.066ZM286.817 316.066C286.817 323.508 285.575 330.648 277.284 330.648C269.003 330.648 267.659 323.508 267.659 316.066C267.659 308.619 269.003 301.484 277.284 301.484C285.575 301.484 286.817 308.619 286.817 316.066ZM306.177 335.143V296.982H300.593V335.143H306.177ZM306.553 286.127V279.85H300.301V286.127H306.553ZM346.484 335.143V310.712C346.484 306.289 345.239 302.721 342.513 300.084C340.181 297.755 336.859 296.518 332.738 296.518C328.497 296.518 324.769 298.069 322.042 301.171V296.982H316.458V335.143H322.042V311.641C322.042 304.972 325.76 301.484 331.496 301.484C337.252 301.484 340.899 304.89 340.899 311.641V335.143H346.484ZM386.295 335.143V310.631C386.295 302.022 381.184 296.519 372.568 296.519C368.306 296.519 364.65 298 361.874 301.17V279.931H356.287V335.143H361.874V311.562C361.874 304.972 365.669 301.483 371.408 301.483C377.134 301.483 380.708 304.89 380.708 311.562V335.143H386.295ZM425.287 316.066C425.287 310.169 424.499 304.815 420.622 300.863C417.963 298.226 414.338 296.519 409.673 296.519C405.039 296.519 401.384 298.226 398.736 300.862C394.888 304.814 394.089 310.168 394.089 316.065C394.089 321.963 394.888 327.305 398.736 331.264C401.384 333.899 405.039 335.608 409.673 335.608C414.338 335.608 417.963 333.9 420.622 331.264C424.499 327.306 425.287 321.963 425.287 316.066ZM419.702 316.066C419.702 320.329 419.46 325.054 416.672 327.853C414.864 329.638 412.379 330.648 409.673 330.648C406.965 330.648 404.563 329.638 402.774 327.853C399.968 325.054 399.675 320.329 399.675 316.066C399.675 311.795 399.968 307.068 402.774 304.275C404.563 302.487 406.965 301.483 409.673 301.483C412.379 301.483 414.864 302.487 416.672 304.275C419.46 307.068 419.702 311.795 419.702 316.066ZM462.612 316.066C462.612 310.169 461.845 304.815 457.949 300.863C455.34 298.226 451.696 296.519 447.031 296.519C442.384 296.519 438.718 298.226 436.114 300.862C432.214 304.814 431.447 310.168 431.447 316.065C431.447 321.963 432.214 327.305 436.114 331.264C438.719 333.899 442.384 335.608 447.031 335.608C451.697 335.608 455.34 333.9 457.948 331.264C461.845 327.306 462.611 321.963 462.611 316.066H462.612ZM457.028 316.066C457.028 320.329 456.806 325.054 454.008 327.853C452.241 329.638 449.755 330.648 447.031 330.648C444.304 330.648 441.918 329.638 440.133 327.853C437.356 325.054 437.03 320.329 437.03 316.066C437.03 311.795 437.356 307.068 440.133 304.275C441.919 302.487 444.304 301.483 447.031 301.483C449.755 301.483 452.241 302.487 454.008 304.275C456.806 307.068 457.028 311.795 457.028 316.066ZM499.131 335.143V279.931H493.546V301.402C490.434 297.448 486.94 296.519 482.749 296.519C478.872 296.519 475.449 297.847 473.438 299.862C469.559 303.731 468.793 310.088 468.793 316.066C468.793 322.033 469.56 328.396 473.438 332.265C475.449 334.284 478.872 335.608 482.749 335.608C486.94 335.608 490.516 334.597 493.617 330.568V335.143H499.131ZM493.546 316.066C493.546 323.508 492.305 330.648 483.982 330.648C475.67 330.648 474.378 323.508 474.378 316.066C474.378 308.619 475.671 301.484 483.982 301.484C492.305 301.484 493.546 308.619 493.546 316.066Z" fill="#2C9261"/>
<path d="M104 286.018H136.545V293.928H112.743V306.003H135.296V313.913H112.743V327.237H137.794V335.147H104V286.018Z" fill="#62407D"/>
<path d="M157.733 317.244L146.213 301.839H156.345L163.006 311.832L170.223 301.839H179.73L168.35 317.244L181.742 335.147H171.611L162.937 323.212L154.194 335.147H144.34L157.733 317.244Z" fill="#62407D"/>
</svg>
