<svg width="150" height="34" viewBox="0 0 150 34" fill="none" xmlns="http://www.w3.org/2000/svg">
<path fill-rule="evenodd" clip-rule="evenodd" d="M16.0121 6.08221C16.9344 5.75421 17.5948 4.87358 17.5948 3.83873C17.5948 2.52403 16.529 1.45825 15.2143 1.45825C13.8996 1.45825 12.8338 2.52403 12.8338 3.83873C12.8338 4.86685 13.4856 5.74274 14.3985 6.07574L13.4548 22.7791L9.11074 7.37727C9.84916 6.97309 10.3499 6.18888 10.3499 5.28772C10.3499 3.97302 9.28414 2.90724 7.96944 2.90724C6.65474 2.90724 5.58896 3.97302 5.58896 5.28772C5.58896 6.53212 6.54381 7.55351 7.7608 7.65918L9.21137 22.2616L3.82043 11.9444C4.39198 11.5096 4.76095 10.8222 4.76095 10.0487C4.76095 8.73396 3.69518 7.66818 2.38048 7.66818C1.06578 7.66818 0 8.73396 0 10.0487C0 11.3634 1.06576 12.4291 2.38044 12.4292L5.58891 22.0546V23.0896H5.58893V33.7499H24.0117V22.779V22.0546L27.4781 12.6086C27.5965 12.6267 27.7178 12.6361 27.8412 12.6361C29.1559 12.6361 30.2217 11.5704 30.2217 10.2557C30.2217 8.94095 29.1559 7.87517 27.8412 7.87517C26.5265 7.87517 25.4607 8.94095 25.4607 10.2557C25.4607 10.8806 25.7016 11.4493 26.0955 11.8741L20.5963 22.2616L22.4297 7.86867C23.6616 7.77788 24.6327 6.74971 24.6327 5.49471C24.6327 4.18001 23.567 3.11423 22.2523 3.11423C20.9376 3.11423 19.8718 4.18001 19.8718 5.49471C19.8718 6.27163 20.244 6.96162 20.8198 7.3961L16.7668 22.7791L16.0121 6.08221ZM7.03795 26.091C7.03795 25.5194 7.50133 25.056 8.07294 25.056H21.5278C22.0994 25.056 22.5628 25.5194 22.5628 26.091C22.5628 26.6626 22.0994 27.126 21.5278 27.126H8.07294C7.50133 27.126 7.03795 26.6626 7.03795 26.091ZM8.07294 29.817C7.50133 29.817 7.03795 30.2803 7.03795 30.852C7.03795 31.4236 7.50133 31.8869 8.07294 31.8869H21.5278C22.0994 31.8869 22.5628 31.4236 22.5628 30.852C22.5628 30.2803 22.0994 29.817 21.5278 29.817H8.07294Z" fill="#618BDB"/>
<path fill-rule="evenodd" clip-rule="evenodd" d="M53.9587 33.7501C62.8183 33.7501 70.0004 26.568 70.0004 17.7084C70.0004 8.84884 62.8183 1.66675 53.9587 1.66675C45.0991 1.66675 37.917 8.84884 37.917 17.7084C37.917 26.568 45.0991 33.7501 53.9587 33.7501ZM68.9654 17.8119C68.9654 19.5608 68.6641 21.2394 68.1107 22.7985C66.8015 24.9905 64.4057 26.4584 61.667 26.4584C57.5249 26.4584 54.167 23.1006 54.167 18.9584C54.1669 14.8163 50.8091 11.4585 46.667 11.4585C42.6585 11.4585 39.3846 14.6031 39.1774 18.5599C39.1651 18.3121 39.1589 18.0627 39.1589 17.8119C39.1589 9.58111 45.8313 2.90871 54.0622 2.90871C62.293 2.90871 68.9654 9.58111 68.9654 17.8119ZM46.667 21.0418C48.1628 21.0418 49.3753 19.8292 49.3753 18.3334C49.3753 16.8377 48.1628 15.6251 46.667 15.6251C45.1712 15.6251 43.9587 16.8377 43.9587 18.3334C43.9587 19.8292 45.1712 21.0418 46.667 21.0418ZM61.8754 21.0418C63.3711 21.0418 64.5837 19.8292 64.5837 18.3334C64.5837 16.8377 63.3711 15.6251 61.8754 15.6251C60.3796 15.6251 59.167 16.8377 59.167 18.3334C59.167 19.8292 60.3796 21.0418 61.8754 21.0418Z" fill="#618BDB"/>
<path d="M85.2207 27.9334C89.4848 27.9334 92.9415 24.4767 92.9415 20.2127C92.9415 15.9486 89.4848 12.4919 85.2207 12.4919C80.9567 12.4919 77.5 15.9486 77.5 20.2127C77.5 24.4767 80.9567 27.9334 85.2207 27.9334Z" fill="#618BDB"/>
<path d="M93.7217 15.4415C97.9858 15.4415 101.442 11.9848 101.442 7.72074C101.442 3.45669 97.9858 0 93.7217 0C89.4577 0 86.001 3.45669 86.001 7.72074C86.001 11.9848 89.4577 15.4415 93.7217 15.4415Z" fill="#618BDB"/>
<path d="M102.571 27.9334C106.835 27.9334 110.292 24.4767 110.292 20.2127C110.292 15.9486 106.835 12.4919 102.571 12.4919C98.3073 12.4919 94.8506 15.9486 94.8506 20.2127C94.8506 24.4767 98.3073 27.9334 102.571 27.9334Z" fill="#618BDB"/>
<path fill-rule="evenodd" clip-rule="evenodd" d="M98.1461 13.533H89.8181V25.1574H90.6236C90.6827 25.554 90.7079 26.1049 90.5121 26.5454C90.3935 26.8123 89.8391 27.3122 89.1608 27.924H89.1607C87.8543 29.1022 86.0879 30.6952 86.0879 31.8372C86.0879 33.5722 88.1699 33.9192 88.1699 33.9192H93.8086H99.4473C99.4473 33.9192 101.53 33.5722 101.53 31.8372C101.53 30.6952 99.7629 29.1022 98.4564 27.924C97.778 27.3122 97.2237 26.8123 97.1051 26.5454C96.9093 26.1049 96.9344 25.554 96.9935 25.1574H98.1461V13.533Z" fill="#618BDB"/>
<path fill-rule="evenodd" clip-rule="evenodd" d="M133.854 33.9584C142.771 33.9584 150 26.7297 150 17.8126C150 8.89548 142.771 1.66675 133.854 1.66675C124.937 1.66675 117.708 8.89548 117.708 17.8126C117.708 26.7297 124.937 33.9584 133.854 33.9584ZM133.958 31.6668C141.667 31.6668 147.917 25.4174 147.917 17.7084C147.917 9.99949 141.667 3.75013 133.958 3.75013C126.249 3.75013 120 9.99949 120 17.7084C120 25.4174 126.249 31.6668 133.958 31.6668Z" fill="#618BDB"/>
<path fill-rule="evenodd" clip-rule="evenodd" d="M124.167 19.375C124.844 24.2042 128.992 27.9202 134.008 27.9202C139.024 27.9202 143.172 24.2042 143.85 19.375H141.762C141.068 22.9732 137.902 25.691 134.101 25.691C130.3 25.691 127.134 22.9732 126.44 19.375H124.167Z" fill="#618BDB"/>
<path d="M129.167 14.9999C130.318 14.9999 131.251 14.0672 131.251 12.9166C131.251 11.766 130.318 10.8333 129.167 10.8333C128.017 10.8333 127.084 11.766 127.084 12.9166C127.084 14.0672 128.017 14.9999 129.167 14.9999Z" fill="#618BDB"/>
<path d="M138.542 14.9999C139.693 14.9999 140.626 14.0672 140.626 12.9166C140.626 11.766 139.693 10.8333 138.542 10.8333C137.392 10.8333 136.459 11.766 136.459 12.9166C136.459 14.0672 137.392 14.9999 138.542 14.9999Z" fill="#618BDB"/>
</svg>
