<svg width="150" height="34" viewBox="0 0 150 34" fill="none" xmlns="http://www.w3.org/2000/svg">
<path fill-rule="evenodd" clip-rule="evenodd" d="M16.0121 6.08233C16.9344 5.75433 17.5948 4.8737 17.5948 3.83885C17.5948 2.52415 16.529 1.45837 15.2143 1.45837C13.8996 1.45837 12.8338 2.52415 12.8338 3.83885C12.8338 4.86697 13.4856 5.74286 14.3985 6.07586L13.4548 22.7792L9.11074 7.37739C9.84916 6.97321 10.3499 6.189 10.3499 5.28784C10.3499 3.97314 9.28414 2.90736 7.96944 2.90736C6.65474 2.90736 5.58896 3.97314 5.58896 5.28784C5.58896 6.53224 6.54381 7.55363 7.7608 7.6593L9.21137 22.2617L3.82043 11.9445C4.39198 11.5097 4.76095 10.8223 4.76095 10.0488C4.76095 8.73408 3.69518 7.6683 2.38048 7.6683C1.06578 7.6683 0 8.73408 0 10.0488C0 11.3635 1.06576 12.4292 2.38044 12.4293L5.58891 22.0547V23.0897H5.58893V33.75H24.0117V22.7791H24.0117V22.0547L27.4781 12.6087C27.5965 12.6268 27.7178 12.6362 27.8412 12.6362C29.1559 12.6362 30.2217 11.5705 30.2217 10.2558C30.2217 8.94107 29.1559 7.87529 27.8412 7.87529C26.5265 7.87529 25.4607 8.94107 25.4607 10.2558C25.4607 10.8807 25.7016 11.4494 26.0955 11.8742L20.5963 22.2617L22.4297 7.86879C23.6616 7.778 24.6327 6.74983 24.6327 5.49483C24.6327 4.18013 23.567 3.11435 22.2523 3.11435C20.9376 3.11435 19.8718 4.18013 19.8718 5.49483C19.8718 6.27175 20.244 6.96174 20.8198 7.39622L16.7668 22.7792L16.0121 6.08233ZM7.03795 26.0911C7.03795 25.5195 7.50133 25.0561 8.07294 25.0561H21.5278C22.0994 25.0561 22.5628 25.5195 22.5628 26.0911C22.5628 26.6627 22.0994 27.1261 21.5278 27.1261H8.07294C7.50133 27.1261 7.03795 26.6627 7.03795 26.0911ZM8.07294 29.8171C7.50133 29.8171 7.03795 30.2804 7.03795 30.8521C7.03795 31.4237 7.50133 31.887 8.07294 31.887H21.5278C22.0994 31.887 22.5628 31.4237 22.5628 30.8521C22.5628 30.2804 22.0994 29.8171 21.5278 29.8171H8.07294Z" fill="#D7D7D7"/>
<path fill-rule="evenodd" clip-rule="evenodd" d="M53.9584 33.75C62.818 33.75 70.0001 26.5679 70.0001 17.7083C70.0001 8.84872 62.818 1.66663 53.9584 1.66663C45.0988 1.66663 37.9167 8.84872 37.9167 17.7083C37.9167 26.5679 45.0988 33.75 53.9584 33.75ZM68.9651 17.8118C68.9651 19.5607 68.6638 21.2393 68.1104 22.7984C66.8012 24.9904 64.4054 26.4583 61.6667 26.4583C57.5246 26.4583 54.1667 23.1005 54.1667 18.9583H54.1667C54.1666 14.8162 50.8088 11.4584 46.6667 11.4584C42.6582 11.4584 39.3843 14.603 39.1771 18.5598C39.1648 18.312 39.1586 18.0626 39.1586 17.8118C39.1586 9.58099 45.831 2.90859 54.0619 2.90859C62.2927 2.90859 68.9651 9.58099 68.9651 17.8118ZM46.6667 21.0417C48.1625 21.0417 49.375 19.8291 49.375 18.3333C49.375 16.8376 48.1625 15.625 46.6667 15.625C45.1709 15.625 43.9584 16.8376 43.9584 18.3333C43.9584 19.8291 45.1709 21.0417 46.6667 21.0417ZM61.8751 21.0417C63.3708 21.0417 64.5834 19.8291 64.5834 18.3333C64.5834 16.8376 63.3708 15.625 61.8751 15.625C60.3793 15.625 59.1667 16.8376 59.1667 18.3333C59.1667 19.8291 60.3793 21.0417 61.8751 21.0417Z" fill="#D7D7D7"/>
<circle cx="85.2207" cy="20.2127" r="7.72074" fill="#D7D7D7"/>
<circle cx="93.7222" cy="7.72074" r="7.72074" fill="#D7D7D7"/>
<circle cx="102.571" cy="20.2127" r="7.72074" fill="#D7D7D7"/>
<path fill-rule="evenodd" clip-rule="evenodd" d="M98.1465 13.533H89.8185V25.1574H90.624C90.6831 25.554 90.7083 26.1049 90.5125 26.5454C90.3939 26.8123 89.8395 27.3122 89.1612 27.924L89.1611 27.924C87.8547 29.1022 86.0883 30.6952 86.0883 31.8372C86.0883 33.5722 88.1703 33.9192 88.1703 33.9192L93.809 33.9192H99.4477C99.4477 33.9192 101.53 33.5722 101.53 31.8372C101.53 30.6952 99.7633 29.1022 98.4568 27.924C97.7784 27.3122 97.2241 26.8123 97.1055 26.5454C96.9097 26.1049 96.9348 25.554 96.9939 25.1574H98.1465V13.533Z" fill="#D7D7D7"/>
<path fill-rule="evenodd" clip-rule="evenodd" d="M133.854 33.9583C142.771 33.9583 150 26.7296 150 17.8125C150 8.89536 142.771 1.66663 133.854 1.66663C124.937 1.66663 117.708 8.89536 117.708 17.8125C117.708 26.7296 124.937 33.9583 133.854 33.9583ZM133.958 31.6667C141.667 31.6667 147.917 25.4173 147.917 17.7083C147.917 9.99937 141.667 3.75001 133.958 3.75001C126.249 3.75001 120 9.99937 120 17.7083C120 25.4173 126.249 31.6667 133.958 31.6667Z" fill="#D7D7D7"/>
<path fill-rule="evenodd" clip-rule="evenodd" d="M124.167 19.375C124.844 24.2042 128.992 27.9202 134.008 27.9202C139.024 27.9202 143.172 24.2042 143.85 19.375H141.762C141.068 22.9732 137.902 25.691 134.101 25.691C130.3 25.691 127.134 22.9732 126.44 19.375H124.167Z" fill="#D7D7D7"/>
<circle cx="129.167" cy="12.9167" r="2.08333" fill="#D7D7D7"/>
<circle cx="138.542" cy="12.9167" r="2.08333" fill="#D7D7D7"/>
</svg>
