<svg width="202" height="69" viewBox="0 0 202 69" fill="none" xmlns="http://www.w3.org/2000/svg">
<path d="M21.2188 22.6777C20.293 23.8848 19.0098 24.7988 17.3691 25.4199C15.7285 26.041 13.8652 26.3516 11.7793 26.3516C9.63477 26.3516 7.73633 25.8652 6.08398 24.8926C4.43164 23.9199 3.1543 22.5312 2.25195 20.7266C1.36133 18.9102 0.898438 16.7949 0.863281 14.3809V12.377C0.863281 8.50977 1.78906 5.49219 3.64062 3.32422C5.49219 1.14453 8.07617 0.0546875 11.3926 0.0546875C14.2402 0.0546875 16.502 0.757812 18.1777 2.16406C19.8535 3.57031 20.8613 5.59766 21.2012 8.24609H16.8418C16.3496 5.16406 14.5625 3.62305 11.4805 3.62305C9.48828 3.62305 7.9707 4.34375 6.92773 5.78516C5.89648 7.21484 5.36328 9.31836 5.32812 12.0957V14.0645C5.32812 16.8301 5.9082 18.9805 7.06836 20.5156C8.24023 22.0391 9.86328 22.8008 11.9375 22.8008C14.2109 22.8008 15.8281 22.2852 16.7891 21.2539V16.2441H11.5156V12.8691H21.2188V22.6777Z" fill="#618BDB"/>
<path d="M44.8262 0.40625V17.5098C44.8262 20.2285 43.9531 22.3848 42.207 23.9785C40.4727 25.5605 38.1582 26.3516 35.2637 26.3516C32.334 26.3516 30.0078 25.5723 28.2852 24.0137C26.5625 22.4434 25.7012 20.2695 25.7012 17.4922V0.40625H30.1309V17.5273C30.1309 19.2383 30.5645 20.5449 31.4316 21.4473C32.2988 22.3496 33.5762 22.8008 35.2637 22.8008C38.6855 22.8008 40.3965 20.9961 40.3965 17.3867V0.40625H44.8262Z" fill="#618BDB"/>
<path d="M69.8926 26H65.4453L54.0371 7.8418V26H49.5898V0.40625H54.0371L65.4805 18.6348V0.40625H69.8926V26Z" fill="#618BDB"/>
<path d="M95.4512 26H91.0039L79.5957 7.8418V26H75.1484V0.40625H79.5957L91.0391 18.6348V0.40625H95.4512V26Z" fill="#618BDB"/>
<path d="M115.35 20.041H105.436L103.361 26H98.7383L108.406 0.40625H112.396L122.082 26H117.441L115.35 20.041ZM106.684 16.4551H114.102L110.393 5.83789L106.684 16.4551Z" fill="#618BDB"/>
<path d="M134.404 16.1387H129.447V26H125V0.40625H134C136.953 0.40625 139.232 1.06836 140.838 2.39258C142.443 3.7168 143.246 5.63281 143.246 8.14062C143.246 9.85156 142.83 11.2871 141.998 12.4473C141.178 13.5957 140.029 14.4805 138.553 15.1016L144.301 25.7715V26H139.537L134.404 16.1387ZM129.447 12.5703H134.018C135.518 12.5703 136.689 12.1953 137.533 11.4453C138.377 10.6836 138.799 9.64648 138.799 8.33398C138.799 6.96289 138.406 5.90234 137.621 5.15234C136.848 4.40234 135.688 4.01562 134.141 3.99219H129.447V12.5703Z" fill="#618BDB"/>
<path d="M11.0059 58.1387H6.04883V68H1.60156V42.4062H10.6016C13.5547 42.4062 15.834 43.0685 17.4395 44.3927C19.0449 45.7169 19.8477 47.6328 19.8477 50.1406C19.8477 51.8516 19.4316 53.2871 18.5996 54.4473C17.7793 55.5957 16.6309 56.4806 15.1543 57.1017L20.9023 67.7715V68H16.1387L11.0059 58.1387ZM6.04883 54.5704H10.6191C12.1191 54.5704 13.291 54.1954 14.1348 53.4454C14.9785 52.6837 15.4004 51.6465 15.4004 50.334C15.4004 48.9629 15.0078 47.9024 14.2227 47.1524C13.4492 46.4024 12.2891 46.0156 10.7422 45.9922H6.04883V54.5704Z" fill="#618BDB"/>
<path d="M44.4922 55.8711C44.4922 58.3789 44.0586 60.582 43.1914 62.4805C42.3242 64.3672 41.082 65.8203 39.4648 66.8398C37.8594 67.8477 36.0078 68.3516 33.9102 68.3516C31.8359 68.3516 29.9844 67.8477 28.3555 66.8398C26.7383 65.8203 25.4844 64.373 24.5938 62.498C23.7148 60.623 23.2695 58.4609 23.2578 56.0117V54.5703C23.2578 52.0742 23.6973 49.8711 24.5762 47.9609C25.4668 46.0508 26.7148 44.5918 28.3203 43.584C29.9375 42.5645 31.7891 42.0547 33.875 42.0547C35.9609 42.0547 37.8066 42.5586 39.4121 43.5664C41.0293 44.5625 42.2773 46.0039 43.1562 47.8906C44.0352 49.7656 44.4805 51.9512 44.4922 54.4473V55.8711ZM40.0449 54.5352C40.0449 51.6992 39.5059 49.5254 38.4277 48.0137C37.3613 46.502 35.8438 45.7461 33.875 45.7461C31.9531 45.7461 30.4473 46.502 29.3574 48.0137C28.2793 49.5137 27.7285 51.6406 27.7051 54.3945V55.8711C27.7051 58.6836 28.25 60.8574 29.3398 62.3926C30.4414 63.9277 31.9648 64.6953 33.9102 64.6953C35.8789 64.6953 37.3906 63.9453 38.4453 62.4453C39.5117 60.9453 40.0449 58.7539 40.0449 55.8711V54.5352Z" fill="#618BDB"/>
<path d="M62.2988 61.4082C62.2988 60.2832 61.9004 59.416 61.1035 58.8066C60.3184 58.1973 58.8945 57.582 56.832 56.9609C54.7695 56.3398 53.1289 55.6484 51.9102 54.8867C49.5781 53.4219 48.4121 51.5117 48.4121 49.1562C48.4121 47.0938 49.25 45.3945 50.9258 44.0586C52.6133 42.7227 54.7988 42.0547 57.4824 42.0547C59.2637 42.0547 60.8516 42.3828 62.2461 43.0391C63.6406 43.6953 64.7363 44.6328 65.5332 45.8516C66.3301 47.0586 66.7285 48.4004 66.7285 49.877H62.2988C62.2988 48.541 61.877 47.498 61.0332 46.748C60.2012 45.9863 59.0059 45.6055 57.4473 45.6055C55.9941 45.6055 54.8633 45.916 54.0547 46.5371C53.2578 47.1582 52.8594 48.0254 52.8594 49.1387C52.8594 50.0762 53.293 50.8613 54.1602 51.4941C55.0273 52.1152 56.457 52.7246 58.4492 53.3223C60.4414 53.9082 62.041 54.582 63.248 55.3438C64.4551 56.0938 65.3398 56.9609 65.9023 57.9453C66.4648 58.918 66.7461 60.0605 66.7461 61.373C66.7461 63.5059 65.9258 65.2051 64.2852 66.4707C62.6562 67.7246 60.4414 68.3516 57.6406 68.3516C55.7891 68.3516 54.084 68.0117 52.5254 67.332C50.9785 66.6406 49.7715 65.6914 48.9043 64.4844C48.0488 63.2773 47.6211 61.8711 47.6211 60.2656H52.0684C52.0684 61.7188 52.5488 62.8438 53.5098 63.6406C54.4707 64.4375 55.8477 64.8359 57.6406 64.8359C59.1875 64.8359 60.3477 64.5254 61.1211 63.9043C61.9062 63.2715 62.2988 62.4395 62.2988 61.4082Z" fill="#618BDB"/>
<path d="M85.6074 56.5742H75.0957V64.4493H87.3828V68H70.6484V42.4062H87.2598V45.9922H75.0957V53.0587H85.6074V56.5742Z" fill="#618BDB"/>
<path d="M111.307 68H106.859L95.4512 49.8419V68H91.0039V42.4062H95.4512L106.895 60.6348V42.4062H111.307V68Z" fill="#618BDB"/>
<path d="M116.562 68V42.4062H125.334C128.229 42.4062 130.432 42.9863 131.943 44.1465C133.455 45.3066 134.211 47.0353 134.211 49.3321C134.211 50.504 133.895 51.5587 133.262 52.4962C132.629 53.4337 131.703 54.1602 130.484 54.6758C131.867 55.0508 132.934 55.7598 133.684 56.8027C134.445 57.834 134.826 59.0763 134.826 60.5294C134.826 62.9317 134.053 64.7773 132.506 66.0664C130.971 67.3555 128.768 68 125.896 68H116.562ZM121.01 56.4512V64.4493H125.949C127.344 64.4493 128.434 64.1036 129.219 63.4122C130.004 62.7208 130.396 61.7599 130.396 60.5294C130.396 57.8692 129.037 56.5098 126.318 56.4512H121.01ZM121.01 53.1816H125.369C126.752 53.1816 127.83 52.8711 128.604 52.25C129.389 51.6172 129.781 50.7266 129.781 49.5781C129.781 48.3125 129.418 47.3984 128.691 46.8359C127.977 46.2734 126.857 45.9922 125.334 45.9922H121.01V53.1816Z" fill="#618BDB"/>
<path d="M154.232 56.5742H143.721V64.4493H156.008V68H139.273V42.4062H155.885V45.9922H143.721V53.0587H154.232V56.5742Z" fill="#618BDB"/>
<path d="M169.033 58.1387H164.076V68H159.629V42.4062H168.629C171.582 42.4062 173.861 43.0685 175.467 44.3927C177.072 45.7169 177.875 47.6328 177.875 50.1406C177.875 51.8516 177.459 53.2871 176.627 54.4473C175.807 55.5957 174.658 56.4806 173.182 57.1017L178.93 67.7715V68H174.166L169.033 58.1387ZM164.076 54.5704H168.646C170.146 54.5704 171.318 54.1954 172.162 53.4454C173.006 52.6837 173.428 51.6465 173.428 50.334C173.428 48.9629 173.035 47.9024 172.25 47.1524C171.477 46.4024 170.316 46.0156 168.77 45.9922H164.076V54.5704Z" fill="#618BDB"/>
<path d="M201.711 64.6777C200.785 65.8848 199.502 66.7988 197.861 67.4199C196.221 68.041 194.357 68.3516 192.271 68.3516C190.127 68.3516 188.229 67.8652 186.576 66.8926C184.924 65.9199 183.646 64.5312 182.744 62.7266C181.854 60.9102 181.391 58.7949 181.355 56.3809V54.377C181.355 50.5098 182.281 47.4922 184.133 45.3242C185.984 43.1445 188.568 42.0547 191.885 42.0547C194.732 42.0547 196.994 42.7578 198.67 44.1641C200.346 45.5703 201.354 47.5977 201.693 50.2461H197.334C196.842 47.1641 195.055 45.623 191.973 45.623C189.98 45.623 188.463 46.3438 187.42 47.7852C186.389 49.2148 185.855 51.3184 185.82 54.0957V56.0645C185.82 58.8301 186.4 60.9805 187.561 62.5156C188.732 64.0391 190.355 64.8008 192.43 64.8008C194.703 64.8008 196.32 64.2852 197.281 63.2539V58.2441H192.008V54.8691H201.711V64.6777Z" fill="#618BDB"/>
</svg>
