<svg width="1399" height="933" viewBox="0 0 1399 933" fill="none" xmlns="http://www.w3.org/2000/svg">
<rect width="1399" height="933" fill="#D7D7D7"/>
<path d="M148.012 408.055V437H127.445V351.688H161.488C168.012 351.688 173.773 352.898 178.773 355.32C183.812 357.703 187.699 361.121 190.434 365.574C193.207 369.988 194.594 375.008 194.594 380.633C194.594 388.953 191.605 395.613 185.629 400.613C179.691 405.574 171.527 408.055 161.137 408.055H148.012ZM148.012 392.176H161.488C165.473 392.176 168.5 391.18 170.57 389.188C172.68 387.195 173.734 384.383 173.734 380.75C173.734 376.766 172.66 373.582 170.512 371.199C168.363 368.816 165.434 367.605 161.723 367.566H148.012V392.176ZM201.391 404.715C201.391 398.387 202.621 392.762 205.082 387.84C207.543 382.879 211.078 379.07 215.688 376.414C220.297 373.758 225.707 372.43 231.918 372.43C241.41 372.43 248.891 375.379 254.359 381.277C259.828 387.137 262.562 395.125 262.562 405.242V405.945C262.562 415.828 259.809 423.68 254.301 429.5C248.832 435.281 241.41 438.172 232.035 438.172C223.012 438.172 215.766 435.477 210.297 430.086C204.828 424.656 201.879 417.312 201.449 408.055L201.391 404.715ZM221.137 405.945C221.137 411.805 222.055 416.102 223.891 418.836C225.727 421.57 228.441 422.938 232.035 422.938C239.066 422.938 242.66 417.527 242.816 406.707V404.715C242.816 393.348 239.184 387.664 231.918 387.664C225.316 387.664 221.742 392.566 221.195 402.371L221.137 405.945ZM309.613 391.473L303.109 391.004C296.898 391.004 292.914 392.957 291.156 396.863V437H271.41V373.602H289.926L290.57 381.746C293.891 375.535 298.52 372.43 304.457 372.43C306.566 372.43 308.402 372.664 309.965 373.133L309.613 391.473ZM342.66 357.84V373.602H353.09V387.312H342.66V416.316C342.66 418.699 343.09 420.359 343.949 421.297C344.809 422.234 346.508 422.703 349.047 422.703C351 422.703 352.641 422.586 353.969 422.352V436.473C350.414 437.605 346.703 438.172 342.836 438.172C336.039 438.172 331.02 436.57 327.777 433.367C324.535 430.164 322.914 425.301 322.914 418.777V387.312H314.828V373.602H322.914V357.84H342.66ZM365.277 437V387.312H356.078V373.602H365.277V368.562C365.277 361.336 367.406 355.73 371.664 351.746C375.922 347.762 381.898 345.77 389.594 345.77C392.406 345.77 395.492 346.18 398.852 347L398.91 361.531C397.699 361.18 396.078 361.004 394.047 361.004C388.07 361.004 385.082 363.582 385.082 368.738V373.602H397.445V387.312H385.082V437H365.277ZM401.898 404.715C401.898 398.387 403.129 392.762 405.59 387.84C408.051 382.879 411.586 379.07 416.195 376.414C420.805 373.758 426.215 372.43 432.426 372.43C441.918 372.43 449.398 375.379 454.867 381.277C460.336 387.137 463.07 395.125 463.07 405.242V405.945C463.07 415.828 460.316 423.68 454.809 429.5C449.34 435.281 441.918 438.172 432.543 438.172C423.52 438.172 416.273 435.477 410.805 430.086C405.336 424.656 402.387 417.312 401.957 408.055L401.898 404.715ZM421.645 405.945C421.645 411.805 422.562 416.102 424.398 418.836C426.234 421.57 428.949 422.938 432.543 422.938C439.574 422.938 443.168 417.527 443.324 406.707V404.715C443.324 393.348 439.691 387.664 432.426 387.664C425.824 387.664 422.25 392.566 421.703 402.371L421.645 405.945ZM492.602 437H472.797V347H492.602V437ZM525.648 437H505.844V373.602H525.648V437ZM504.672 357.254C504.672 354.441 505.688 352.137 507.719 350.34C509.75 348.543 512.387 347.645 515.629 347.645C518.871 347.645 521.508 348.543 523.539 350.34C525.57 352.137 526.586 354.441 526.586 357.254C526.586 360.066 525.57 362.371 523.539 364.168C521.508 365.965 518.871 366.863 515.629 366.863C512.387 366.863 509.75 365.965 507.719 364.168C505.688 362.371 504.672 360.066 504.672 357.254ZM535.375 404.715C535.375 398.387 536.605 392.762 539.066 387.84C541.527 382.879 545.062 379.07 549.672 376.414C554.281 373.758 559.691 372.43 565.902 372.43C575.395 372.43 582.875 375.379 588.344 381.277C593.812 387.137 596.547 395.125 596.547 405.242V405.945C596.547 415.828 593.793 423.68 588.285 429.5C582.816 435.281 575.395 438.172 566.02 438.172C556.996 438.172 549.75 435.477 544.281 430.086C538.812 424.656 535.863 417.312 535.434 408.055L535.375 404.715ZM555.121 405.945C555.121 411.805 556.039 416.102 557.875 418.836C559.711 421.57 562.426 422.938 566.02 422.938C573.051 422.938 576.645 417.527 576.801 406.707V404.715C576.801 393.348 573.168 387.664 565.902 387.664C559.301 387.664 555.727 392.566 555.18 402.371L555.121 405.945ZM636.039 437V351.688H666.684C677.66 351.688 686 353.699 691.703 357.723C697.445 361.746 700.316 367.586 700.316 375.242C700.316 379.656 699.301 383.426 697.27 386.551C695.238 389.676 692.25 391.98 688.305 393.465C692.758 394.637 696.176 396.824 698.559 400.027C700.941 403.23 702.133 407.137 702.133 411.746C702.133 420.105 699.477 426.395 694.164 430.613C688.891 434.793 681.059 436.922 670.668 437H636.039ZM656.605 400.73V421.18H670.082C673.793 421.18 676.645 420.34 678.637 418.66C680.629 416.941 681.625 414.539 681.625 411.453C681.625 404.344 678.09 400.77 671.02 400.73H656.605ZM656.605 387.254H667.328C671.82 387.215 675.023 386.395 676.938 384.793C678.852 383.191 679.809 380.828 679.809 377.703C679.809 374.109 678.773 371.531 676.703 369.969C674.633 368.367 671.293 367.566 666.684 367.566H656.605V387.254ZM748.305 437C747.602 435.711 746.977 433.816 746.43 431.316C742.797 435.887 737.719 438.172 731.195 438.172C725.219 438.172 720.141 436.375 715.961 432.781C711.781 429.148 709.691 424.598 709.691 419.129C709.691 412.254 712.23 407.059 717.309 403.543C722.387 400.027 729.77 398.27 739.457 398.27H745.551V394.93C745.551 389.109 743.031 386.199 737.992 386.199C733.305 386.199 730.961 388.504 730.961 393.113H711.215C711.215 386.98 713.812 382 719.008 378.172C724.242 374.344 730.902 372.43 738.988 372.43C747.074 372.43 753.461 374.402 758.148 378.348C762.836 382.293 765.238 387.703 765.355 394.578V422.645C765.434 428.465 766.332 432.918 768.051 436.004V437H748.305ZM735.941 424.109C738.402 424.109 740.434 423.582 742.035 422.527C743.676 421.473 744.848 420.281 745.551 418.953V408.816H739.809C732.934 408.816 729.496 411.902 729.496 418.074C729.496 419.871 730.102 421.336 731.312 422.469C732.523 423.562 734.066 424.109 735.941 424.109ZM803.148 422.938C805.922 422.938 808.07 422.195 809.594 420.711C811.117 419.188 811.859 417.078 811.82 414.383H830.336C830.336 421.336 827.836 427.039 822.836 431.492C817.875 435.945 811.469 438.172 803.617 438.172C794.398 438.172 787.133 435.281 781.82 429.5C776.508 423.719 773.852 415.711 773.852 405.477V404.656C773.852 398.25 775.023 392.605 777.367 387.723C779.75 382.801 783.168 379.031 787.621 376.414C792.074 373.758 797.348 372.43 803.441 372.43C811.684 372.43 818.227 374.715 823.07 379.285C827.914 383.855 830.336 390.047 830.336 397.859H811.82C811.82 394.578 811.02 392.059 809.418 390.301C807.816 388.543 805.668 387.664 802.973 387.664C797.855 387.664 794.867 390.926 794.008 397.449C793.734 399.52 793.598 402.371 793.598 406.004C793.598 412.371 794.359 416.785 795.883 419.246C797.406 421.707 799.828 422.938 803.148 422.938ZM864.145 413.387L858.578 418.953V437H838.832V346.941H858.578V394.754L860.57 392.117L875.453 373.602H899.125L876.918 399.676L900.59 437H877.973L864.145 413.387ZM927.309 357.84V373.602H937.738V387.312H927.309V416.316C927.309 418.699 927.738 420.359 928.598 421.297C929.457 422.234 931.156 422.703 933.695 422.703C935.648 422.703 937.289 422.586 938.617 422.352V436.473C935.062 437.605 931.352 438.172 927.484 438.172C920.688 438.172 915.668 436.57 912.426 433.367C909.184 430.164 907.562 425.301 907.562 418.777V387.312H899.477V373.602H907.562V357.84H927.309ZM976.234 438.172C966.508 438.172 958.637 435.281 952.621 429.5C946.605 423.68 943.598 416.121 943.598 406.824V405.184C943.598 398.699 944.789 392.977 947.172 388.016C949.594 383.055 953.109 379.227 957.719 376.531C962.328 373.797 967.797 372.43 974.125 372.43C983.031 372.43 990.062 375.203 995.219 380.75C1000.38 386.258 1002.95 393.953 1002.95 403.836V411.512H963.695C964.398 415.066 965.941 417.859 968.324 419.891C970.707 421.922 973.793 422.938 977.582 422.938C983.832 422.938 988.715 420.75 992.23 416.375L1001.25 427.039C998.793 430.438 995.297 433.152 990.766 435.184C986.273 437.176 981.43 438.172 976.234 438.172ZM974.008 387.664C968.227 387.664 964.789 391.492 963.695 399.148H983.617V397.625C983.695 394.461 982.895 392.02 981.215 390.301C979.535 388.543 977.133 387.664 974.008 387.664ZM1044.14 419.188C1044.14 417.508 1043.27 416.16 1041.51 415.145C1039.75 414.129 1036.41 413.074 1031.49 411.98C1026.57 410.887 1022.5 409.461 1019.3 407.703C1016.1 405.906 1013.66 403.738 1011.98 401.199C1010.3 398.66 1009.46 395.75 1009.46 392.469C1009.46 386.648 1011.86 381.863 1016.66 378.113C1021.47 374.324 1027.76 372.43 1035.53 372.43C1043.89 372.43 1050.61 374.324 1055.69 378.113C1060.77 381.902 1063.3 386.883 1063.3 393.055H1043.5C1043.5 387.977 1040.82 385.438 1035.47 385.438C1033.4 385.438 1031.66 386.023 1030.26 387.195C1028.85 388.328 1028.15 389.754 1028.15 391.473C1028.15 393.23 1029.01 394.656 1030.73 395.75C1032.45 396.844 1035.18 397.742 1038.93 398.445C1042.72 399.148 1046.04 399.988 1048.89 400.965C1058.42 404.246 1063.19 410.125 1063.19 418.602C1063.19 424.383 1060.61 429.09 1055.45 432.723C1050.34 436.355 1043.7 438.172 1035.53 438.172C1030.1 438.172 1025.26 437.195 1021 435.242C1016.74 433.289 1013.42 430.633 1011.04 427.273C1008.66 423.914 1007.46 420.379 1007.46 416.668H1025.92C1026 419.598 1026.98 421.746 1028.85 423.113C1030.73 424.441 1033.13 425.105 1036.06 425.105C1038.75 425.105 1040.77 424.559 1042.09 423.465C1043.46 422.371 1044.14 420.945 1044.14 419.188ZM1095.47 357.84V373.602H1105.9V387.312H1095.47V416.316C1095.47 418.699 1095.9 420.359 1096.76 421.297C1097.62 422.234 1099.32 422.703 1101.86 422.703C1103.81 422.703 1105.45 422.586 1106.78 422.352V436.473C1103.23 437.605 1099.52 438.172 1095.65 438.172C1088.85 438.172 1083.83 436.57 1080.59 433.367C1077.35 430.164 1075.73 425.301 1075.73 418.777V387.312H1067.64V373.602H1075.73V357.84H1095.47ZM1134.55 437H1114.75V373.602H1134.55V437ZM1113.58 357.254C1113.58 354.441 1114.59 352.137 1116.62 350.34C1118.66 348.543 1121.29 347.645 1124.54 347.645C1127.78 347.645 1130.41 348.543 1132.45 350.34C1134.48 352.137 1135.49 354.441 1135.49 357.254C1135.49 360.066 1134.48 362.371 1132.45 364.168C1130.41 365.965 1127.78 366.863 1124.54 366.863C1121.29 366.863 1118.66 365.965 1116.62 364.168C1114.59 362.371 1113.58 360.066 1113.58 357.254ZM1164.91 373.602L1165.55 381.043C1169.93 375.301 1175.96 372.43 1183.66 372.43C1190.26 372.43 1195.18 374.402 1198.42 378.348C1201.7 382.293 1203.4 388.23 1203.52 396.16V437H1183.71V396.98C1183.71 393.777 1183.07 391.434 1181.78 389.949C1180.49 388.426 1178.15 387.664 1174.75 387.664C1170.88 387.664 1168.01 389.188 1166.14 392.234V437H1146.39V373.602H1164.91ZM1212.19 404.832C1212.19 398.426 1213.25 392.762 1215.36 387.84C1217.46 382.918 1220.49 379.129 1224.44 376.473C1228.38 373.777 1232.97 372.43 1238.21 372.43C1244.81 372.43 1249.96 374.656 1253.68 379.109L1254.38 373.602H1272.31V434.598C1272.31 440.184 1271 445.027 1268.38 449.129C1265.8 453.27 1262.05 456.434 1257.13 458.621C1252.21 460.848 1246.51 461.961 1240.02 461.961C1235.38 461.961 1230.86 461.082 1226.49 459.324C1222.15 457.566 1218.83 455.281 1216.53 452.469L1224.79 440.867C1228.46 445.203 1233.3 447.371 1239.32 447.371C1248.07 447.371 1252.45 442.879 1252.45 433.895V431.902C1248.66 436.082 1243.87 438.172 1238.09 438.172C1230.36 438.172 1224.11 435.223 1219.34 429.324C1214.57 423.387 1212.19 415.457 1212.19 405.535V404.832ZM1232 406.062C1232 411.258 1232.97 415.379 1234.93 418.426C1236.88 421.434 1239.61 422.938 1243.13 422.938C1247.39 422.938 1250.49 421.512 1252.45 418.66V392C1250.53 389.109 1247.46 387.664 1243.25 387.664C1239.73 387.664 1236.98 389.246 1234.98 392.41C1232.99 395.535 1232 400.086 1232 406.062Z" fill="#0E0E0E"/>
<path d="M194.902 564.062H166.719L161.797 580H139.824L171.113 494.688H190.449L221.973 580H199.883L194.902 564.062ZM171.641 548.184H189.98L180.781 518.594L171.641 548.184ZM242.656 516.602L243.301 524.043C247.676 518.301 253.711 515.43 261.406 515.43C268.008 515.43 272.93 517.402 276.172 521.348C279.453 525.293 281.152 531.23 281.27 539.16V580H261.465V539.98C261.465 536.777 260.82 534.434 259.531 532.949C258.242 531.426 255.898 530.664 252.5 530.664C248.633 530.664 245.762 532.188 243.887 535.234V580H224.141V516.602H242.656ZM327.969 580C327.266 578.711 326.641 576.816 326.094 574.316C322.461 578.887 317.383 581.172 310.859 581.172C304.883 581.172 299.805 579.375 295.625 575.781C291.445 572.148 289.355 567.598 289.355 562.129C289.355 555.254 291.895 550.059 296.973 546.543C302.051 543.027 309.434 541.27 319.121 541.27H325.215V537.93C325.215 532.109 322.695 529.199 317.656 529.199C312.969 529.199 310.625 531.504 310.625 536.113H290.879C290.879 529.98 293.477 525 298.672 521.172C303.906 517.344 310.566 515.43 318.652 515.43C326.738 515.43 333.125 517.402 337.812 521.348C342.5 525.293 344.902 530.703 345.02 537.578V565.645C345.098 571.465 345.996 575.918 347.715 579.004V580H327.969ZM315.605 567.109C318.066 567.109 320.098 566.582 321.699 565.527C323.34 564.473 324.512 563.281 325.215 561.953V551.816H319.473C312.598 551.816 309.16 554.902 309.16 561.074C309.16 562.871 309.766 564.336 310.977 565.469C312.188 566.562 313.73 567.109 315.605 567.109ZM376.836 580H357.031V490H376.836V580ZM414.395 552.344L424.941 516.602H446.094L420.254 590.605L419.141 593.301C415.469 601.504 408.984 605.605 399.688 605.605C397.109 605.605 394.395 605.215 391.543 604.434V590.312H394.121C396.895 590.312 399.004 589.902 400.449 589.082C401.934 588.301 403.027 586.875 403.73 584.805L405.312 580.586L383.281 516.602H404.375L414.395 552.344ZM474.277 500.84V516.602H484.707V530.312H474.277V559.316C474.277 561.699 474.707 563.359 475.566 564.297C476.426 565.234 478.125 565.703 480.664 565.703C482.617 565.703 484.258 565.586 485.586 565.352V579.473C482.031 580.605 478.32 581.172 474.453 581.172C467.656 581.172 462.637 579.57 459.395 576.367C456.152 573.164 454.531 568.301 454.531 561.777V530.312H446.445V516.602H454.531V500.84H474.277ZM513.359 580H493.555V516.602H513.359V580ZM492.383 500.254C492.383 497.441 493.398 495.137 495.43 493.34C497.461 491.543 500.098 490.645 503.34 490.645C506.582 490.645 509.219 491.543 511.25 493.34C513.281 495.137 514.297 497.441 514.297 500.254C514.297 503.066 513.281 505.371 511.25 507.168C509.219 508.965 506.582 509.863 503.34 509.863C500.098 509.863 497.461 508.965 495.43 507.168C493.398 505.371 492.383 503.066 492.383 500.254ZM552.383 565.938C555.156 565.938 557.305 565.195 558.828 563.711C560.352 562.188 561.094 560.078 561.055 557.383H579.57C579.57 564.336 577.07 570.039 572.07 574.492C567.109 578.945 560.703 581.172 552.852 581.172C543.633 581.172 536.367 578.281 531.055 572.5C525.742 566.719 523.086 558.711 523.086 548.477V547.656C523.086 541.25 524.258 535.605 526.602 530.723C528.984 525.801 532.402 522.031 536.855 519.414C541.309 516.758 546.582 515.43 552.676 515.43C560.918 515.43 567.461 517.715 572.305 522.285C577.148 526.855 579.57 533.047 579.57 540.859H561.055C561.055 537.578 560.254 535.059 558.652 533.301C557.051 531.543 554.902 530.664 552.207 530.664C547.09 530.664 544.102 533.926 543.242 540.449C542.969 542.52 542.832 545.371 542.832 549.004C542.832 555.371 543.594 559.785 545.117 562.246C546.641 564.707 549.062 565.938 552.383 565.938ZM621.113 562.188C621.113 560.508 620.234 559.16 618.477 558.145C616.719 557.129 613.379 556.074 608.457 554.98C603.535 553.887 599.473 552.461 596.27 550.703C593.066 548.906 590.625 546.738 588.945 544.199C587.266 541.66 586.426 538.75 586.426 535.469C586.426 529.648 588.828 524.863 593.633 521.113C598.438 517.324 604.727 515.43 612.5 515.43C620.859 515.43 627.578 517.324 632.656 521.113C637.734 524.902 640.273 529.883 640.273 536.055H620.469C620.469 530.977 617.793 528.438 612.441 528.438C610.371 528.438 608.633 529.023 607.227 530.195C605.82 531.328 605.117 532.754 605.117 534.473C605.117 536.23 605.977 537.656 607.695 538.75C609.414 539.844 612.148 540.742 615.898 541.445C619.688 542.148 623.008 542.988 625.859 543.965C635.391 547.246 640.156 553.125 640.156 561.602C640.156 567.383 637.578 572.09 632.422 575.723C627.305 579.355 620.664 581.172 612.5 581.172C607.07 581.172 602.227 580.195 597.969 578.242C593.711 576.289 590.391 573.633 588.008 570.273C585.625 566.914 584.434 563.379 584.434 559.668H602.891C602.969 562.598 603.945 564.746 605.82 566.113C607.695 567.441 610.098 568.105 613.027 568.105C615.723 568.105 617.734 567.559 619.062 566.465C620.43 565.371 621.113 563.945 621.113 562.188ZM692.012 535.059C689.707 531.777 687.891 528.652 686.562 525.684C685.273 522.715 684.629 519.648 684.629 516.484C684.629 509.609 686.855 504.062 691.309 499.844C695.762 495.586 701.582 493.457 708.77 493.457C715.215 493.457 720.547 495.43 724.766 499.375C728.984 503.281 731.094 508.145 731.094 513.965C731.094 521.23 727.09 527.676 719.082 533.301L714.629 536.406L727.754 551.465C729.902 547.168 730.977 542.461 730.977 537.344H747.559C747.559 548.867 744.902 558.105 739.59 565.059L752.598 580H730.566L726.582 575.488C723.301 577.441 719.941 578.887 716.504 579.824C713.105 580.762 709.258 581.23 704.961 581.23C696.523 581.23 689.766 579.023 684.688 574.609C679.609 570.156 677.07 564.316 677.07 557.09C677.07 553.145 678.066 549.57 680.059 546.367C682.09 543.164 686.016 539.434 691.836 535.176L692.012 535.059ZM706.25 565.996C709.688 565.996 712.969 565.195 716.094 563.594L700.742 546.133L700.215 546.484C697.988 549.219 696.875 552.305 696.875 555.742C696.875 558.594 697.773 561.016 699.57 563.008C701.367 565 703.594 565.996 706.25 565.996ZM701.68 516.25C701.68 518.984 703.164 522.305 706.133 526.211L710.059 523.75C711.855 522.578 713.164 521.367 713.984 520.117C714.805 518.867 715.215 517.285 715.215 515.371C715.215 513.574 714.59 512.012 713.34 510.684C712.09 509.355 710.547 508.691 708.711 508.691C706.523 508.691 704.805 509.395 703.555 510.801C702.305 512.168 701.68 513.984 701.68 516.25ZM812.891 580H792.383V494.688H812.891V580ZM844.414 516.602L845.059 524.043C849.434 518.301 855.469 515.43 863.164 515.43C869.766 515.43 874.688 517.402 877.93 521.348C881.211 525.293 882.91 531.23 883.027 539.16V580H863.223V539.98C863.223 536.777 862.578 534.434 861.289 532.949C860 531.426 857.656 530.664 854.258 530.664C850.391 530.664 847.52 532.188 845.645 535.234V580H825.898V516.602H844.414ZM927.207 562.188C927.207 560.508 926.328 559.16 924.57 558.145C922.812 557.129 919.473 556.074 914.551 554.98C909.629 553.887 905.566 552.461 902.363 550.703C899.16 548.906 896.719 546.738 895.039 544.199C893.359 541.66 892.52 538.75 892.52 535.469C892.52 529.648 894.922 524.863 899.727 521.113C904.531 517.324 910.82 515.43 918.594 515.43C926.953 515.43 933.672 517.324 938.75 521.113C943.828 524.902 946.367 529.883 946.367 536.055H926.562C926.562 530.977 923.887 528.438 918.535 528.438C916.465 528.438 914.727 529.023 913.32 530.195C911.914 531.328 911.211 532.754 911.211 534.473C911.211 536.23 912.07 537.656 913.789 538.75C915.508 539.844 918.242 540.742 921.992 541.445C925.781 542.148 929.102 542.988 931.953 543.965C941.484 547.246 946.25 553.125 946.25 561.602C946.25 567.383 943.672 572.09 938.516 575.723C933.398 579.355 926.758 581.172 918.594 581.172C913.164 581.172 908.32 580.195 904.062 578.242C899.805 576.289 896.484 573.633 894.102 570.273C891.719 566.914 890.527 563.379 890.527 559.668H908.984C909.062 562.598 910.039 564.746 911.914 566.113C913.789 567.441 916.191 568.105 919.121 568.105C921.816 568.105 923.828 567.559 925.156 566.465C926.523 565.371 927.207 563.945 927.207 562.188ZM976.367 580H956.562V516.602H976.367V580ZM955.391 500.254C955.391 497.441 956.406 495.137 958.438 493.34C960.469 491.543 963.105 490.645 966.348 490.645C969.59 490.645 972.227 491.543 974.258 493.34C976.289 495.137 977.305 497.441 977.305 500.254C977.305 503.066 976.289 505.371 974.258 507.168C972.227 508.965 969.59 509.863 966.348 509.863C963.105 509.863 960.469 508.965 958.438 507.168C956.406 505.371 955.391 503.066 955.391 500.254ZM986.27 547.832C986.27 541.426 987.324 535.762 989.434 530.84C991.543 525.918 994.57 522.129 998.516 519.473C1002.46 516.777 1007.05 515.43 1012.29 515.43C1018.89 515.43 1024.04 517.656 1027.75 522.109L1028.46 516.602H1046.39V577.598C1046.39 583.184 1045.08 588.027 1042.46 592.129C1039.88 596.27 1036.13 599.434 1031.21 601.621C1026.29 603.848 1020.59 604.961 1014.1 604.961C1009.45 604.961 1004.94 604.082 1000.57 602.324C996.23 600.566 992.91 598.281 990.605 595.469L998.867 583.867C1002.54 588.203 1007.38 590.371 1013.4 590.371C1022.15 590.371 1026.52 585.879 1026.52 576.895V574.902C1022.73 579.082 1017.95 581.172 1012.17 581.172C1004.43 581.172 998.184 578.223 993.418 572.324C988.652 566.387 986.27 558.457 986.27 548.535V547.832ZM1006.07 549.062C1006.07 554.258 1007.05 558.379 1009 561.426C1010.96 564.434 1013.69 565.938 1017.21 565.938C1021.46 565.938 1024.57 564.512 1026.52 561.66V535C1024.61 532.109 1021.54 530.664 1017.32 530.664C1013.81 530.664 1011.05 532.246 1009.06 535.41C1007.07 538.535 1006.07 543.086 1006.07 549.062ZM1076.91 523.398C1081.13 518.086 1086.52 515.43 1093.09 515.43C1100.08 515.43 1105.35 517.5 1108.91 521.641C1112.46 525.781 1114.28 531.895 1114.36 539.98V580H1094.55V540.449C1094.55 537.09 1093.87 534.629 1092.5 533.066C1091.13 531.465 1088.81 530.664 1085.53 530.664C1081.46 530.664 1078.59 531.953 1076.91 534.531V580H1057.17V490H1076.91V523.398ZM1148.34 500.84V516.602H1158.77V530.312H1148.34V559.316C1148.34 561.699 1148.77 563.359 1149.63 564.297C1150.49 565.234 1152.19 565.703 1154.73 565.703C1156.68 565.703 1158.32 565.586 1159.65 565.352V579.473C1156.09 580.605 1152.38 581.172 1148.52 581.172C1141.72 581.172 1136.7 579.57 1133.46 576.367C1130.21 573.164 1128.59 568.301 1128.59 561.777V530.312H1120.51V516.602H1128.59V500.84H1148.34ZM1199.79 562.188C1199.79 560.508 1198.91 559.16 1197.15 558.145C1195.39 557.129 1192.05 556.074 1187.13 554.98C1182.21 553.887 1178.14 552.461 1174.94 550.703C1171.74 548.906 1169.3 546.738 1167.62 544.199C1165.94 541.66 1165.1 538.75 1165.1 535.469C1165.1 529.648 1167.5 524.863 1172.3 521.113C1177.11 517.324 1183.4 515.43 1191.17 515.43C1199.53 515.43 1206.25 517.324 1211.33 521.113C1216.41 524.902 1218.95 529.883 1218.95 536.055H1199.14C1199.14 530.977 1196.46 528.438 1191.11 528.438C1189.04 528.438 1187.3 529.023 1185.9 530.195C1184.49 531.328 1183.79 532.754 1183.79 534.473C1183.79 536.23 1184.65 537.656 1186.37 538.75C1188.09 539.844 1190.82 540.742 1194.57 541.445C1198.36 542.148 1201.68 542.988 1204.53 543.965C1214.06 547.246 1218.83 553.125 1218.83 561.602C1218.83 567.383 1216.25 572.09 1211.09 575.723C1205.98 579.355 1199.34 581.172 1191.17 581.172C1185.74 581.172 1180.9 580.195 1176.64 578.242C1172.38 576.289 1169.06 573.633 1166.68 570.273C1164.3 566.914 1163.11 563.379 1163.11 559.668H1181.56C1181.64 562.598 1182.62 564.746 1184.49 566.113C1186.37 567.441 1188.77 568.105 1191.7 568.105C1194.39 568.105 1196.41 567.559 1197.73 566.465C1199.1 565.371 1199.79 563.945 1199.79 562.188ZM1240.33 560.84C1243.46 560.84 1246.05 561.777 1248.12 563.652C1250.2 565.488 1251.23 567.852 1251.23 570.742C1251.23 573.633 1250.2 576.016 1248.12 577.891C1246.05 579.727 1243.46 580.645 1240.33 580.645C1237.17 580.645 1234.55 579.707 1232.48 577.832C1230.45 575.957 1229.43 573.594 1229.43 570.742C1229.43 567.891 1230.45 565.527 1232.48 563.652C1234.55 561.777 1237.17 560.84 1240.33 560.84Z" fill="#6B34FE"/>
</svg>
