<svg width="291" height="56" viewBox="0 0 291 56" fill="none" xmlns="http://www.w3.org/2000/svg">
<path d="M50.5945 15.0235C50.5945 18.3864 49.8075 21.2132 48.2336 23.5039C46.684 25.7946 44.3231 27.6588 41.1511 29.0966L49.977 45.7285H57.0595V55.0862H40.3884L28.0394 30.9974H21.7923V45.7285H28.6569V55.0862H0V45.7285H7.51835V9.3577H0V0H31.2356C37.2891 0 42.0228 1.29156 45.437 3.87467C48.8753 6.43342 50.5945 10.1497 50.5945 15.0235ZM35.7031 15.6449C35.7031 13.5492 35.0372 11.9774 33.7054 10.9295C32.3737 9.88164 30.5577 9.3577 28.2574 9.3577H21.7923V22.1514H27.0225C32.8095 22.1514 35.7031 19.9826 35.7031 15.6449Z" fill="#618BDB"/>
<path d="M98.5373 38.4542H70.062C70.3525 41.4029 71.3574 43.7423 73.0766 45.4725C74.82 47.1783 77.0597 48.0312 79.7959 48.0312C82.8226 48.0312 85.7767 46.5204 88.6581 43.4986L98.1014 46.5691C96.019 49.7127 93.4403 52.0765 90.3651 53.6605C87.29 55.2201 83.6459 55.9999 79.4327 55.9999C75.2195 55.9999 71.4906 55.2079 68.246 53.6239C65.0255 52.0156 62.5194 49.7492 60.7276 46.825C58.96 43.9007 58.0762 40.4647 58.0762 36.5169C58.0762 32.6178 58.9963 29.0843 60.8366 25.9163C62.701 22.7484 65.2071 20.2749 68.3549 18.496C71.5269 16.6927 74.9652 15.791 78.6699 15.791C82.6894 15.791 86.1883 16.7292 89.1666 18.6056C92.1449 20.4577 94.433 23.1017 96.0311 26.5378C97.6535 29.9494 98.4888 33.9216 98.5373 38.4542ZM78.0888 23.9425C75.9096 23.9425 74.1541 24.5761 72.8223 25.8432C71.5148 27.1104 70.6915 29.0478 70.3525 31.6553H86.2609C85.9219 29.3646 84.9897 27.5125 83.4642 26.0991C81.963 24.6613 80.1712 23.9425 78.0888 23.9425Z" fill="#618BDB"/>
<path d="M125.778 46.2402V55.0862H102.206V46.2402H108.163V8.8094H102.206V0H120.366V46.2402H125.778Z" fill="#618BDB"/>
<path d="M152.655 46.2402V55.0862H129.083V46.2402H135.04V8.8094H129.083V0H147.243V46.2402H152.655Z" fill="#618BDB"/>
<path d="M195.949 38.4542H167.474C167.764 41.4029 168.769 43.7423 170.489 45.4725C172.232 47.1783 174.472 48.0312 177.208 48.0312C180.235 48.0312 183.189 46.5204 186.07 43.4986L195.513 46.5691C193.431 49.7127 190.852 52.0765 187.777 53.6605C184.702 55.2201 181.058 55.9999 176.845 55.9999C172.631 55.9999 168.903 55.2079 165.658 53.6239C162.437 52.0156 159.931 49.7492 158.14 46.825C156.372 43.9007 155.488 40.4647 155.488 36.5169C155.488 32.6178 156.408 29.0843 158.248 25.9163C160.113 22.7484 162.619 20.2749 165.767 18.496C168.939 16.6927 172.377 15.791 176.082 15.791C180.101 15.791 183.6 16.7292 186.578 18.6056C189.557 20.4577 191.845 23.1017 193.443 26.5378C195.065 29.9494 195.901 33.9216 195.949 38.4542ZM175.501 23.9425C173.322 23.9425 171.566 24.5761 170.234 25.8432C168.927 27.1104 168.103 29.0478 167.764 31.6553H183.673C183.334 29.3646 182.402 27.5125 180.876 26.0991C179.375 24.6613 177.583 23.9425 175.501 23.9425Z" fill="#618BDB"/>
<path d="M220.865 46.6423V55.0862H197.947V46.2402H204.049V8.8094H197.947V0H216.252V46.6423H220.865ZM221.228 16.6684H244.292V24.4543H240.514L229.255 34.0679L239.461 46.2402H244.728V55.0862H232.597L216.325 34.799L229.255 24.0888H221.228V16.6684Z" fill="#618BDB"/>
<path d="M284.825 32.0208V46.2401H291V55.0861H272.694V52.0887C269.232 54.4768 265.769 55.6709 262.307 55.6709C258.118 55.6709 254.764 54.5865 252.246 52.4177C249.728 50.2488 248.469 47.3245 248.469 43.6448C248.469 39.7458 249.873 36.6265 252.682 34.2871C255.515 31.9233 259.268 30.7414 263.941 30.7414C265.564 30.7414 267.004 30.9242 268.263 31.2897C269.547 31.6309 271.024 32.2279 272.694 33.0808V30.0103C272.694 28.0608 272.089 26.5012 270.878 25.3315C269.668 24.1618 267.852 23.5769 265.43 23.5769C262.791 23.5769 260.454 24.6004 258.42 26.6474L248.614 24.8563C251.592 18.8128 257.742 15.791 267.065 15.791C273.457 15.791 278.009 17.1191 280.721 19.7754C283.457 22.4072 284.825 26.489 284.825 32.0208ZM265.031 48.0312C267.21 48.0312 269.765 46.7153 272.694 44.0835V40.6474C270.079 38.9416 267.682 38.0887 265.503 38.0887C263.76 38.0887 262.428 38.5029 261.508 39.3315C260.588 40.16 260.128 41.3419 260.128 42.8772C260.128 46.3132 261.762 48.0312 265.031 48.0312Z" fill="#618BDB"/>
</svg>
