<svg width="291" height="56" viewBox="0 0 291 56" fill="none" xmlns="http://www.w3.org/2000/svg">
<path d="M50.5945 15.0235C50.5945 18.3864 49.8075 21.2132 48.2336 23.5039C46.684 25.7946 44.3231 27.6588 41.1511 29.0966L49.977 45.7285H57.0595V55.0862H40.3884L28.0394 30.9974H21.7923V45.7285H28.6569V55.0862H0V45.7285H7.51835V9.3577H0V0H31.2356C37.2891 0 42.0228 1.29156 45.437 3.87467C48.8753 6.43342 50.5945 10.1497 50.5945 15.0235ZM35.7031 15.6449C35.7031 13.5492 35.0372 11.9774 33.7054 10.9295C32.3737 9.88164 30.5577 9.3577 28.2574 9.3577H21.7923V22.1514H27.0225C32.8095 22.1514 35.7031 19.9826 35.7031 15.6449Z" fill="#FAFAFA"/>
<path d="M98.5376 38.4543H70.0623C70.3528 41.403 71.3577 43.7424 73.0769 45.4726C74.8203 47.1784 77.06 48.0313 79.7962 48.0313C82.8229 48.0313 85.777 46.5205 88.6584 43.4987L98.1017 46.5692C96.0193 49.7128 93.4406 52.0766 90.3654 53.6606C87.2903 55.2202 83.6462 56 79.433 56C75.2198 56 71.4909 55.208 68.2463 53.624C65.0258 52.0157 62.5197 49.7493 60.7279 46.8251C58.9603 43.9008 58.0765 40.4648 58.0765 36.517C58.0765 32.6179 58.9966 29.0844 60.8369 25.9164C62.7013 22.7485 65.2074 20.275 68.3552 18.4961C71.5272 16.6928 74.9655 15.7911 78.6702 15.7911C82.6897 15.7911 86.1886 16.7293 89.1669 18.6057C92.1452 20.4578 94.4333 23.1018 96.0314 26.5379C97.6538 29.9495 98.4891 33.9217 98.5376 38.4543ZM78.0891 23.9426C75.9099 23.9426 74.1544 24.5762 72.8226 25.8433C71.5151 27.1105 70.6918 29.0479 70.3528 31.6554H86.2612C85.9222 29.3647 84.99 27.5126 83.4645 26.0992C81.9633 24.6614 80.1715 23.9426 78.0891 23.9426Z" fill="#FAFAFA"/>
<path d="M125.778 46.2402V55.0862H102.206V46.2402H108.163V8.8094H102.206V0H120.366V46.2402H125.778Z" fill="#FAFAFA"/>
<path d="M152.655 46.2402V55.0862H129.083V46.2402H135.04V8.8094H129.083V0H147.243V46.2402H152.655Z" fill="#FAFAFA"/>
<path d="M195.949 38.4543H167.474C167.764 41.403 168.769 43.7424 170.489 45.4726C172.232 47.1784 174.472 48.0313 177.208 48.0313C180.235 48.0313 183.189 46.5205 186.07 43.4987L195.513 46.5692C193.431 49.7128 190.852 52.0766 187.777 53.6606C184.702 55.2202 181.058 56 176.845 56C172.631 56 168.903 55.208 165.658 53.624C162.437 52.0157 159.931 49.7493 158.14 46.8251C156.372 43.9008 155.488 40.4648 155.488 36.517C155.488 32.6179 156.408 29.0844 158.248 25.9164C160.113 22.7485 162.619 20.275 165.767 18.4961C168.939 16.6928 172.377 15.7911 176.082 15.7911C180.101 15.7911 183.6 16.7293 186.578 18.6057C189.557 20.4578 191.845 23.1018 193.443 26.5379C195.065 29.9495 195.901 33.9217 195.949 38.4543ZM175.501 23.9426C173.322 23.9426 171.566 24.5762 170.234 25.8433C168.927 27.1105 168.103 29.0479 167.764 31.6554H183.673C183.334 29.3647 182.402 27.5126 180.876 26.0992C179.375 24.6614 177.583 23.9426 175.501 23.9426Z" fill="#FAFAFA"/>
<path d="M220.865 46.6423V55.0862H197.947V46.2402H204.049V8.8094H197.947V0H216.252V46.6423H220.865ZM221.228 16.6684H244.292V24.4543H240.514L229.255 34.0679L239.461 46.2402H244.728V55.0862H232.597L216.325 34.799L229.255 24.0888H221.228V16.6684Z" fill="#FAFAFA"/>
<path d="M284.825 32.0209V46.2402H291V55.0862H272.694V52.0888C269.232 54.4769 265.769 55.671 262.307 55.671C258.118 55.671 254.764 54.5866 252.246 52.4178C249.728 50.2489 248.469 47.3246 248.469 43.6449C248.469 39.7459 249.873 36.6266 252.682 34.2872C255.515 31.9234 259.268 30.7415 263.941 30.7415C265.564 30.7415 267.004 30.9243 268.263 31.2898C269.547 31.631 271.024 32.228 272.694 33.0809V30.0104C272.694 28.0609 272.089 26.5013 270.878 25.3316C269.668 24.1619 267.852 23.577 265.43 23.577C262.791 23.577 260.454 24.6005 258.42 26.6475L248.614 24.8564C251.592 18.8129 257.742 15.7911 267.065 15.7911C273.457 15.7911 278.009 17.1192 280.721 19.7755C283.457 22.4073 284.825 26.4891 284.825 32.0209ZM265.031 48.0313C267.21 48.0313 269.765 46.7154 272.694 44.0836V40.6475C270.079 38.9417 267.682 38.0888 265.503 38.0888C263.76 38.0888 262.428 38.503 261.508 39.3316C260.588 40.1601 260.128 41.342 260.128 42.8773C260.128 46.3133 261.762 48.0313 265.031 48.0313Z" fill="#FAFAFA"/>
</svg>
