<svg width="400" height="400" viewBox="0 0 400 400" fill="none" xmlns="http://www.w3.org/2000/svg">
<rect width="400" height="400" fill="#F5AC6A"/>
<path fill-rule="evenodd" clip-rule="evenodd" d="M106.008 137.468C103.354 137.827 100.803 138.727 98.5129 140.113C96.3911 141.395 94.5212 143.052 92.995 145.004C91.5311 146.892 90.4532 149.05 89.8228 151.354C89.1839 153.635 89.0331 156.025 89.3803 158.368C89.8769 161.703 90.9643 164.923 92.5917 167.876C94.2418 170.906 96.1552 173.843 98.3258 176.687C100.502 179.534 102.833 182.355 105.327 185.151C107.767 187.884 110.103 190.708 112.328 193.618C114.433 196.365 116.342 199.257 118.041 202.272C119.651 205.113 120.723 208.225 121.205 211.454C121.915 216.258 121.442 220.85 119.789 225.234C118.13 229.63 115.628 233.661 112.424 237.101C109.107 240.673 105.219 243.67 100.919 245.97C96.6114 248.321 91.9207 249.891 87.0644 250.607C80.2006 251.605 73.9538 251.563 68.3186 250.474C62.683 249.392 57.8244 247.673 53.7545 245.323C49.6846 242.973 46.4228 240.178 43.975 236.937C41.5213 233.697 40.0501 230.369 39.5433 226.955C39.0545 223.647 39.8159 220.29 41.8361 216.892C43.9103 213.421 46.5292 210.306 49.5926 207.665C52.6685 204.971 56.0455 202.641 59.6566 200.721C63.2123 198.842 66.2754 197.714 68.8487 197.336C70.669 197.072 71.7162 197.847 71.9847 199.657C72.0454 200.003 72.0293 200.357 71.9374 200.696C71.8455 201.034 71.6802 201.348 71.4531 201.616C70.7312 202.443 69.9715 203.236 69.1763 203.993C68.0462 205.247 66.9204 206.53 65.7992 207.838C64.6772 209.149 63.7035 210.579 62.896 212.103C62.061 213.705 61.4574 215.418 61.1033 217.189C60.7184 219.045 60.6974 221.147 61.0461 223.494C61.3619 225.63 62.1362 227.72 63.3712 229.777C64.6223 231.854 66.2283 233.696 68.1162 235.218C70.1052 236.823 72.3751 238.044 74.8103 238.821C77.3417 239.651 80.0527 239.857 82.9496 239.432C89.0608 238.541 93.7301 236.064 96.9671 231.995C100.198 227.926 101.366 222.849 100.466 216.767C99.8851 212.819 98.0737 208.884 95.0289 204.966C91.8406 200.876 88.5628 196.857 85.198 192.911C81.6671 188.764 78.3429 184.447 75.2376 179.973C72.1064 175.469 70.1654 170.652 69.4083 165.531C68.6691 160.516 69.3 155.873 71.2949 151.605C73.3216 147.294 76.1864 143.429 79.7225 140.235C83.3417 136.928 87.5342 134.19 92.3088 132.024C97.0803 129.858 101.879 128.422 106.705 127.718C109.705 127.284 112.586 127.134 115.346 127.274C118.105 127.422 120.583 127.878 122.779 128.645C124.972 129.42 126.809 130.54 128.284 132.014C129.762 133.492 130.666 135.347 130.997 137.585C131.424 140.467 130.928 143.429 129.516 146.469C128.106 149.503 126.319 152.346 124.196 154.931C122.218 157.379 119.948 159.577 117.438 161.477C115.07 163.238 113.188 164.221 111.797 164.423C111.438 164.48 111.072 164.464 110.719 164.375C110.367 164.286 110.037 164.126 109.749 163.904C109.133 163.45 108.786 162.957 108.706 162.422C108.629 161.889 108.691 161.346 108.886 160.845C109.081 160.322 109.528 159.467 110.232 158.273C111.464 156.244 112.637 153.809 113.753 150.973C114.868 148.143 115.238 145.444 114.859 142.883C114.543 140.75 113.578 139.227 111.968 138.317C110.353 137.407 108.366 137.123 106.008 137.468V137.468ZM149.059 210.052C151.902 209.618 154.469 208.402 156.767 206.4C159.039 204.429 160.972 202.097 162.486 199.498C163.996 196.9 165.105 194.283 165.805 191.636C166.507 188.998 166.737 186.815 166.491 185.085C166.185 182.931 165.087 181.997 163.193 182.284C160.979 182.619 158.95 183.863 157.103 186.016C155.193 188.273 153.622 190.794 152.438 193.503C151.173 196.339 150.219 199.295 149.581 202.368C148.938 205.438 148.768 208.001 149.059 210.052V210.052ZM193.192 215.253C191.398 219.403 188.945 223.237 185.929 226.608C183.333 229.536 179.993 232.356 175.916 235.068C171.836 237.779 166.797 239.594 160.793 240.504C156.791 241.114 153.023 241.079 149.488 240.404C145.946 239.731 142.818 238.525 140.099 236.785C137.4 235.07 135.099 232.799 133.348 230.124C131.569 227.419 130.431 224.341 129.944 220.889C129.072 214.737 129.381 208.964 130.874 203.553C132.367 198.147 134.54 193.382 137.397 189.256C140.253 185.129 143.52 181.796 147.195 179.256C150.866 176.713 154.441 175.176 157.914 174.65C160.334 174.284 162.664 174.427 164.912 175.079C167.154 175.728 169.175 176.718 170.98 178.041C172.772 179.359 174.293 181.009 175.461 182.901C176.641 184.816 177.392 186.851 177.698 189.008C177.971 190.949 177.881 193.362 177.429 196.236C176.976 199.118 175.951 201.945 174.359 204.723C172.761 207.502 170.428 210.029 167.365 212.316C164.302 214.598 160.293 216.115 155.344 216.866C154.119 217.043 152.877 217.064 151.646 216.931C150.832 216.933 150.017 216.892 149.207 216.806C149.898 221.663 151.791 225.174 154.896 227.349C157.998 229.524 161.449 230.323 165.239 229.749C168.923 229.189 172.182 227.896 175.011 225.864C177.847 223.84 180.182 221.75 182.032 219.594C184.244 217.066 186.07 214.226 187.452 211.166C187.508 210.827 187.72 210.411 188.079 209.913C188.261 209.669 188.541 209.377 188.926 209.042C189.31 208.708 189.783 208.493 190.287 208.422C191.131 208.293 191.938 208.501 192.716 209.046C193.253 209.403 193.665 209.919 193.894 210.521C194.124 211.123 194.16 211.782 193.997 212.405C193.893 212.806 193.769 213.24 193.62 213.702C193.467 214.166 193.324 214.685 193.192 215.253" fill="#DF782B"/>
<path fill-rule="evenodd" clip-rule="evenodd" d="M106.008 137.468C103.354 137.827 100.803 138.727 98.5129 140.113C96.3911 141.395 94.5212 143.052 92.995 145.004C91.5311 146.892 90.4532 149.05 89.8228 151.354C89.1839 153.635 89.0331 156.025 89.3803 158.368C89.8769 161.703 90.9643 164.923 92.5917 167.876C94.2418 170.906 96.1552 173.843 98.3258 176.687C100.502 179.534 102.833 182.355 105.327 185.151C107.767 187.884 110.103 190.708 112.328 193.618C114.433 196.365 116.342 199.257 118.041 202.272C119.651 205.113 120.723 208.225 121.205 211.454C121.915 216.258 121.442 220.85 119.789 225.234C118.13 229.63 115.628 233.661 112.424 237.101C109.107 240.673 105.219 243.67 100.919 245.97C96.6114 248.321 91.9207 249.891 87.0644 250.607C80.2006 251.605 73.9538 251.563 68.3186 250.474C62.683 249.392 57.8244 247.673 53.7545 245.323C49.6846 242.973 46.4228 240.178 43.975 236.937C41.5213 233.697 40.0501 230.369 39.5433 226.955C39.0545 223.647 39.8159 220.29 41.8361 216.892C43.9103 213.421 46.5292 210.306 49.5926 207.665C52.6685 204.971 56.0455 202.641 59.6566 200.721C63.2123 198.842 66.2754 197.714 68.8487 197.336C70.669 197.072 71.7162 197.847 71.9847 199.657C72.0454 200.003 72.0293 200.357 71.9374 200.696C71.8455 201.034 71.6802 201.348 71.4531 201.616C70.7312 202.443 69.9715 203.236 69.1763 203.993C68.0462 205.247 66.9204 206.53 65.7992 207.838C64.6772 209.149 63.7035 210.579 62.896 212.103C62.061 213.705 61.4574 215.418 61.1033 217.189C60.7184 219.045 60.6974 221.147 61.0461 223.494C61.3619 225.63 62.1362 227.72 63.3712 229.777C64.6223 231.854 66.2283 233.696 68.1162 235.218C70.1052 236.823 72.3751 238.044 74.8103 238.821C77.3417 239.651 80.0527 239.857 82.9496 239.432C89.0608 238.541 93.7301 236.064 96.9671 231.995C100.198 227.926 101.366 222.849 100.466 216.767C99.8851 212.819 98.0737 208.884 95.0289 204.966C91.8406 200.876 88.5628 196.857 85.198 192.911C81.6671 188.764 78.3429 184.447 75.2376 179.973C72.1064 175.469 70.1654 170.652 69.4083 165.531C68.6691 160.516 69.3 155.873 71.2949 151.605C73.3216 147.294 76.1864 143.429 79.7225 140.235C83.3417 136.928 87.5342 134.19 92.3088 132.024C97.0803 129.858 101.879 128.422 106.705 127.718C109.705 127.284 112.586 127.134 115.346 127.274C118.105 127.422 120.583 127.878 122.779 128.645C124.972 129.42 126.809 130.54 128.284 132.014C129.762 133.492 130.666 135.347 130.997 137.585C131.424 140.467 130.928 143.429 129.516 146.469C128.106 149.503 126.319 152.346 124.196 154.931C122.218 157.379 119.948 159.577 117.438 161.477C115.07 163.238 113.188 164.221 111.797 164.423C111.438 164.48 111.072 164.464 110.719 164.375C110.367 164.286 110.037 164.126 109.749 163.904C109.133 163.45 108.786 162.957 108.706 162.422C108.629 161.889 108.691 161.346 108.886 160.845C109.081 160.322 109.528 159.467 110.232 158.273C111.464 156.244 112.637 153.809 113.753 150.973C114.868 148.143 115.238 145.444 114.859 142.883C114.543 140.75 113.578 139.227 111.968 138.317C110.353 137.407 108.366 137.123 106.008 137.468V137.468ZM149.059 210.052C151.902 209.618 154.469 208.402 156.767 206.4C159.039 204.429 160.972 202.097 162.486 199.498C163.996 196.9 165.105 194.283 165.805 191.636C166.507 188.998 166.737 186.815 166.491 185.085C166.185 182.931 165.087 181.997 163.193 182.284C160.979 182.619 158.95 183.863 157.103 186.016C155.193 188.273 153.622 190.794 152.438 193.503C151.173 196.339 150.219 199.295 149.581 202.368C148.938 205.438 148.768 208.001 149.059 210.052V210.052ZM193.192 215.253C191.398 219.403 188.945 223.237 185.929 226.608C183.333 229.536 179.993 232.356 175.916 235.068C171.836 237.779 166.797 239.594 160.793 240.504C156.791 241.114 153.023 241.079 149.488 240.404C145.946 239.731 142.818 238.525 140.099 236.785C137.4 235.07 135.099 232.799 133.348 230.124C131.569 227.419 130.431 224.341 129.944 220.889C129.072 214.737 129.381 208.964 130.874 203.553C132.367 198.147 134.54 193.382 137.397 189.256C140.253 185.129 143.52 181.796 147.195 179.256C150.866 176.713 154.441 175.176 157.914 174.65C160.334 174.284 162.664 174.427 164.912 175.079C167.154 175.728 169.175 176.718 170.98 178.041C172.772 179.359 174.293 181.009 175.461 182.901C176.641 184.816 177.392 186.851 177.698 189.008C177.971 190.949 177.881 193.362 177.429 196.236C176.976 199.118 175.951 201.945 174.359 204.723C172.761 207.502 170.428 210.029 167.365 212.316C164.302 214.598 160.293 216.115 155.344 216.866C154.119 217.043 152.877 217.064 151.646 216.931C150.832 216.933 150.017 216.892 149.207 216.806C149.898 221.663 151.791 225.174 154.896 227.349C157.998 229.524 161.449 230.323 165.239 229.749C168.923 229.189 172.182 227.896 175.011 225.864C177.847 223.84 180.182 221.75 182.032 219.594C184.244 217.066 186.07 214.226 187.452 211.166C187.508 210.827 187.72 210.411 188.079 209.913C188.261 209.669 188.541 209.377 188.926 209.042C189.31 208.708 189.783 208.493 190.287 208.422C191.131 208.293 191.938 208.501 192.716 209.046C193.253 209.403 193.665 209.919 193.894 210.521C194.124 211.123 194.16 211.782 193.997 212.405C193.893 212.806 193.769 213.24 193.62 213.702C193.467 214.166 193.324 214.685 193.192 215.253" fill="#F1584A"/>
<path fill-rule="evenodd" clip-rule="evenodd" d="M229.489 128.327C229.268 126.846 228.522 126.199 227.246 126.384C225.758 126.601 224.062 128.523 222.152 132.15C220.245 135.776 218.381 140.421 216.558 146.089C214.736 151.755 213.033 158.05 211.45 164.978C209.883 171.807 208.785 178.734 208.161 185.711C209.748 183.969 211.426 181.56 213.2 178.492C215.092 175.188 216.79 171.778 218.287 168.277C219.904 164.529 221.451 160.66 222.926 156.665C224.396 152.669 225.652 148.843 226.686 145.179C227.716 141.523 228.503 138.189 229.037 135.197C229.574 132.202 229.722 129.913 229.489 128.327V128.327ZM216.235 231.519C213.11 231.984 209.927 231.9 206.831 231.27C203.812 230.665 200.947 229.457 198.407 227.719C195.817 225.928 193.62 223.628 191.95 220.96C190.183 218.193 189.024 214.961 188.48 211.257C187.699 205.97 187.442 200.013 187.713 193.384C187.997 186.609 188.769 179.864 190.023 173.2C191.28 166.418 192.926 159.714 194.954 153.12C196.971 146.562 199.377 140.621 202.178 135.299C204.971 129.976 208.045 125.614 211.397 122.21C214.749 118.807 218.34 116.825 222.165 116.268C223.946 116 225.765 116.181 227.458 116.795C230.813 117.979 233.706 120.195 235.723 123.123C236.691 124.55 237.283 125.95 237.487 127.325C237.81 129.542 237.619 132.467 236.906 136.078C236.19 139.691 235.113 143.629 233.683 147.888C232.249 152.149 230.487 156.59 228.403 161.216C226.339 165.794 224.126 170.303 221.769 174.737C219.528 178.958 217.123 183.091 214.56 187.125C212.09 190.998 209.689 194.237 207.363 196.842C207.334 198.144 207.32 199.497 207.312 200.901C207.27 202.097 207.3 203.417 207.407 204.855C207.51 206.299 207.664 207.709 207.867 209.084C208.414 212.785 209.737 215.67 211.834 217.743C213.932 219.816 216.628 220.608 219.924 220.125C222.049 219.818 224.049 218.827 225.92 217.148C227.757 215.514 229.37 213.645 230.717 211.59C232.35 209.407 233.766 206.878 234.971 204.002C235.032 203.67 235.241 203.263 235.604 202.777C235.786 202.536 236.069 202.25 236.457 201.924C236.848 201.596 237.325 201.386 237.832 201.32C238.684 201.195 239.497 201.4 240.285 201.933C240.828 202.27 241.247 202.773 241.481 203.366C241.716 203.959 241.753 204.612 241.588 205.228C241.473 205.656 241.346 206.08 241.206 206.5C241.054 206.953 240.911 207.463 240.778 208.019C239.078 211.903 236.945 215.583 234.421 218.991C232.33 221.78 229.763 224.422 226.712 226.917C223.712 229.388 220.086 230.981 216.235 231.519" fill="#DF782B"/>
<path fill-rule="evenodd" clip-rule="evenodd" d="M229.489 128.327C229.268 126.846 228.522 126.199 227.246 126.384C225.758 126.601 224.062 128.523 222.152 132.15C220.245 135.776 218.381 140.421 216.558 146.089C214.736 151.755 213.033 158.05 211.45 164.978C209.883 171.807 208.785 178.734 208.161 185.711C209.748 183.969 211.426 181.56 213.2 178.492C215.092 175.188 216.79 171.778 218.287 168.277C219.904 164.529 221.451 160.66 222.926 156.665C224.396 152.669 225.652 148.843 226.686 145.179C227.716 141.523 228.503 138.189 229.037 135.197C229.574 132.202 229.722 129.913 229.489 128.327V128.327ZM216.235 231.519C213.11 231.984 209.927 231.9 206.831 231.27C203.812 230.665 200.947 229.457 198.407 227.719C195.817 225.928 193.62 223.628 191.95 220.96C190.183 218.193 189.024 214.961 188.48 211.257C187.699 205.97 187.442 200.013 187.713 193.384C187.997 186.609 188.769 179.864 190.023 173.2C191.28 166.418 192.926 159.714 194.954 153.12C196.971 146.562 199.377 140.621 202.178 135.299C204.971 129.976 208.045 125.614 211.397 122.21C214.749 118.807 218.34 116.825 222.165 116.268C223.946 116 225.765 116.181 227.458 116.795C230.813 117.979 233.706 120.195 235.723 123.123C236.691 124.55 237.283 125.95 237.487 127.325C237.81 129.542 237.619 132.467 236.906 136.078C236.19 139.691 235.113 143.629 233.683 147.888C232.249 152.149 230.487 156.59 228.403 161.216C226.339 165.794 224.126 170.303 221.769 174.737C219.528 178.958 217.123 183.091 214.56 187.125C212.09 190.998 209.689 194.237 207.363 196.842C207.334 198.144 207.32 199.497 207.312 200.901C207.27 202.097 207.3 203.417 207.407 204.855C207.51 206.299 207.664 207.709 207.867 209.084C208.414 212.785 209.737 215.67 211.834 217.743C213.932 219.816 216.628 220.608 219.924 220.125C222.049 219.818 224.049 218.827 225.92 217.148C227.757 215.514 229.37 213.645 230.717 211.59C232.35 209.407 233.766 206.878 234.971 204.002C235.032 203.67 235.241 203.263 235.604 202.777C235.786 202.536 236.069 202.25 236.457 201.924C236.848 201.596 237.325 201.386 237.832 201.32C238.684 201.195 239.497 201.4 240.285 201.933C240.828 202.27 241.247 202.773 241.481 203.366C241.716 203.959 241.753 204.612 241.588 205.228C241.473 205.656 241.346 206.08 241.206 206.5C241.054 206.953 240.911 207.463 240.778 208.019C239.078 211.903 236.945 215.583 234.421 218.991C232.33 221.78 229.763 224.422 226.712 226.917C223.712 229.388 220.086 230.981 216.235 231.519" fill="#F1584A"/>
<path fill-rule="evenodd" clip-rule="evenodd" d="M274.606 120.997C274.388 119.517 273.639 118.869 272.363 119.057C270.876 119.271 269.179 121.197 267.272 124.817C265.365 128.447 263.499 133.091 261.679 138.757C259.702 144.977 257.996 151.28 256.567 157.649C255.001 164.477 253.902 171.404 253.278 178.382C254.865 176.636 256.544 174.234 258.32 171.163C260.212 167.858 261.911 164.446 263.408 160.945C265.059 157.118 266.605 153.246 268.044 149.335C269.444 145.557 270.698 141.726 271.803 137.852C272.747 134.563 273.533 131.231 274.157 127.867C274.691 124.872 274.84 122.583 274.606 120.997V120.997ZM261.353 224.193C258.228 224.657 255.046 224.572 251.951 223.941C248.931 223.337 246.065 222.128 243.524 220.389C240.935 218.599 238.737 216.3 237.067 213.634C235.303 210.867 234.141 207.631 233.597 203.931C232.816 198.644 232.56 192.683 232.83 186.057C233.114 179.281 233.886 172.535 235.14 165.87C236.399 159.089 238.045 152.386 240.071 145.794C242.088 139.235 244.494 133.294 247.295 127.972C250.091 122.65 253.165 118.284 256.517 114.881C259.869 111.478 263.457 109.496 267.286 108.938C269.065 108.673 270.883 108.854 272.575 109.465C275.931 110.65 278.825 112.865 280.844 115.794C281.812 117.221 282.401 118.62 282.604 119.995C282.93 122.212 282.739 125.134 282.026 128.748C281.31 132.365 280.234 136.299 278.803 140.558C277.366 144.82 275.607 149.261 273.523 153.887C271.458 158.464 269.245 162.974 266.886 167.407C264.645 171.63 262.241 175.763 259.677 179.799C257.207 183.672 254.809 186.908 252.481 189.513C252.454 190.814 252.437 192.17 252.429 193.575C252.387 194.771 252.417 196.087 252.524 197.528C252.627 198.972 252.781 200.383 252.987 201.755C253.531 205.458 254.854 208.344 256.952 210.413C259.053 212.484 261.745 213.278 265.044 212.799C267.17 212.489 269.166 211.497 271.037 209.816C272.874 208.182 274.486 206.314 275.835 204.26C277.468 202.077 278.886 199.552 280.091 196.673C280.149 196.341 280.361 195.933 280.725 195.451C280.906 195.207 281.189 194.923 281.574 194.595C281.966 194.266 282.444 194.056 282.952 193.99C283.802 193.865 284.618 194.071 285.406 194.604C286.188 195.137 286.643 195.828 286.772 196.674C286.832 197.097 286.811 197.506 286.705 197.898C286.59 198.326 286.463 198.75 286.324 199.171C286.175 199.623 286.029 200.13 285.898 200.692C284.197 204.576 282.064 208.255 279.538 211.661C277.448 214.453 274.88 217.093 271.829 219.588C268.83 222.06 265.204 223.654 261.353 224.193" fill="#DF782B"/>
<path fill-rule="evenodd" clip-rule="evenodd" d="M274.606 120.997C274.388 119.517 273.639 118.869 272.363 119.057C270.876 119.271 269.179 121.197 267.272 124.817C265.365 128.447 263.499 133.091 261.679 138.757C259.702 144.977 257.996 151.28 256.567 157.649C255.001 164.477 253.902 171.404 253.278 178.382C254.865 176.636 256.544 174.234 258.32 171.163C260.212 167.858 261.911 164.446 263.408 160.945C265.059 157.118 266.605 153.246 268.044 149.335C269.444 145.557 270.698 141.726 271.803 137.852C272.747 134.563 273.533 131.231 274.157 127.867C274.691 124.872 274.84 122.583 274.606 120.997V120.997ZM261.353 224.193C258.228 224.657 255.046 224.572 251.951 223.941C248.931 223.337 246.065 222.128 243.524 220.389C240.935 218.599 238.737 216.3 237.067 213.634C235.303 210.867 234.141 207.631 233.597 203.931C232.816 198.644 232.56 192.683 232.83 186.057C233.114 179.281 233.886 172.535 235.14 165.87C236.399 159.089 238.045 152.386 240.071 145.794C242.088 139.235 244.494 133.294 247.295 127.972C250.091 122.65 253.165 118.284 256.517 114.881C259.869 111.478 263.457 109.496 267.286 108.938C269.065 108.673 270.883 108.854 272.575 109.465C275.931 110.65 278.825 112.865 280.844 115.794C281.812 117.221 282.401 118.62 282.604 119.995C282.93 122.212 282.739 125.134 282.026 128.748C281.31 132.365 280.234 136.299 278.803 140.558C277.366 144.82 275.607 149.261 273.523 153.887C271.458 158.464 269.245 162.974 266.886 167.407C264.645 171.63 262.241 175.763 259.677 179.799C257.207 183.672 254.809 186.908 252.481 189.513C252.454 190.814 252.437 192.17 252.429 193.575C252.387 194.771 252.417 196.087 252.524 197.528C252.627 198.972 252.781 200.383 252.987 201.755C253.531 205.458 254.854 208.344 256.952 210.413C259.053 212.484 261.745 213.278 265.044 212.799C267.17 212.489 269.166 211.497 271.037 209.816C272.874 208.182 274.486 206.314 275.835 204.26C277.468 202.077 278.886 199.552 280.091 196.673C280.149 196.341 280.361 195.933 280.725 195.451C280.906 195.207 281.189 194.923 281.574 194.595C281.966 194.266 282.444 194.056 282.952 193.99C283.802 193.865 284.618 194.071 285.406 194.604C286.188 195.137 286.643 195.828 286.772 196.674C286.832 197.097 286.811 197.506 286.705 197.898C286.59 198.326 286.463 198.75 286.324 199.171C286.175 199.623 286.029 200.13 285.898 200.692C284.197 204.576 282.064 208.255 279.538 211.661C277.448 214.453 274.88 217.093 271.829 219.588C268.83 222.06 265.204 223.654 261.353 224.193" fill="#F1584A"/>
<path fill-rule="evenodd" clip-rule="evenodd" d="M321.678 164.683C321.333 162.32 320.507 160.656 319.213 159.695C318.598 159.225 317.892 158.885 317.141 158.698C316.389 158.511 315.607 158.48 314.843 158.607C312.475 158.951 310.234 160.542 308.124 163.375C306.01 166.208 304.223 169.569 302.762 173.458C301.266 177.47 300.191 181.626 299.553 185.859C298.877 190.239 298.783 194.095 299.277 197.421C299.987 202.255 301.904 204.446 305.025 203.989C306.966 203.705 309.008 202.09 311.161 199.142C313.308 196.194 315.24 192.677 316.946 188.584C318.655 184.485 319.991 180.24 320.935 175.901C321.889 171.543 322.138 167.8 321.678 164.683ZM355.231 197.632C353.813 199.924 352.2 202.089 350.409 204.103C348.842 205.917 347.058 207.532 345.097 208.91C343.14 210.327 340.871 211.252 338.481 211.606C333.96 212.268 329.967 211.671 326.504 209.817C323.042 207.966 320.711 204.825 319.51 200.389C317.849 203.258 315.861 205.925 313.584 208.336C311.583 210.457 309.379 212.376 307.004 214.069C304.516 215.86 301.627 217.017 298.59 217.44C296.459 217.756 294.287 217.655 292.196 217.141C290.133 216.65 288.197 215.727 286.518 214.433C284.813 213.107 283.371 211.475 282.265 209.621C281.102 207.71 280.34 205.515 279.974 203.044C279.121 197.244 279.384 191.337 280.747 185.319C282.047 179.487 284.196 173.877 287.125 168.668C290.006 163.581 293.446 159.323 297.451 155.879C301.455 152.441 305.662 150.399 310.077 149.755C313.306 149.281 316.113 149.282 318.491 149.756C320.871 150.237 322.833 150.852 324.376 151.614C326.163 152.561 327.639 153.607 328.797 154.754C329.976 154.582 331.262 154.533 332.653 154.6C334.034 154.673 335.336 154.924 336.553 155.35C337.77 155.776 338.825 156.414 339.724 157.268C340.616 158.128 341.17 159.256 341.378 160.652C341.55 161.833 341.349 163.838 340.777 166.666C340.205 169.491 339.567 172.63 338.86 176.079C338.148 179.598 337.57 183.142 337.126 186.704C336.672 190.336 336.642 193.498 337.034 196.18C337.225 197.47 337.787 198.485 338.72 199.227C339.655 199.969 340.821 200.237 342.224 200.032C343.083 199.904 343.903 199.514 344.687 198.849C345.469 198.186 346.242 197.47 347.011 196.699C347.872 195.807 348.651 194.755 349.353 193.558C349.713 192.943 350.124 192.359 350.583 191.813C351.04 191.256 351.694 190.896 352.409 190.806C353.274 190.679 354.138 190.941 355.004 191.58C355.861 192.222 356.361 192.97 356.486 193.828C356.581 194.474 356.373 195.274 355.851 196.227C355.603 196.677 355.395 197.148 355.231 197.635L355.231 197.632ZM98.3803 260.14C107.302 258.85 116.216 257.5 125.119 256.089C136.33 254.329 148.588 252.342 161.899 250.122C175.196 247.906 188.975 245.646 203.211 243.35C217.454 241.054 231.097 238.813 244.133 236.634C257.173 234.455 268.971 232.531 279.525 230.866C287.701 229.563 295.886 228.317 304.079 227.128C310.661 226.166 317.315 225.784 323.965 225.986C330.34 226.204 335.955 226.692 340.793 227.45C345.635 228.212 349.485 229.112 352.346 230.156C355.198 231.2 356.682 232.033 356.778 232.665C356.874 233.293 356.229 233.978 354.856 234.712C353.48 235.442 352.264 235.885 351.212 236.035C350.414 236.148 348.61 236.245 345.783 236.324C342.96 236.402 339.593 236.509 335.696 236.634C331.8 236.762 327.779 236.961 323.635 237.228C319.482 237.494 315.827 237.854 312.655 238.308C303.398 239.625 292.523 241.392 280.028 243.599C267.529 245.812 254.456 248.211 240.8 250.798C226.948 253.428 213.099 256.073 199.253 258.734C186.195 261.243 173.142 263.774 160.092 266.329C149.469 268.414 138.838 270.465 128.202 272.483C119.004 274.222 112.293 275.394 108.069 275.994C99.8703 277.162 92.5384 277.375 86.0828 276.632C79.6183 275.889 74.0503 274.777 69.3732 273.294C64.6899 271.813 61.0737 270.235 58.5278 268.556C55.9756 266.882 54.6411 265.623 54.5153 264.78C54.4165 264.148 54.8675 263.548 55.8596 262.978C56.8517 262.409 58.013 262.026 59.3372 261.838C60.6583 261.65 62.3449 261.626 64.3883 261.761C70.5283 262.154 76.6868 262.165 82.828 261.792C87.1144 261.557 92.2974 261.009 98.3803 260.14Z" fill="#DF782B"/>
<path fill-rule="evenodd" clip-rule="evenodd" d="M321.678 164.683C321.333 162.32 320.507 160.656 319.213 159.695C318.598 159.225 317.892 158.885 317.141 158.698C316.389 158.511 315.607 158.48 314.843 158.607C312.475 158.951 310.234 160.542 308.124 163.375C306.01 166.208 304.223 169.569 302.762 173.458C301.266 177.47 300.191 181.626 299.553 185.859C298.877 190.239 298.783 194.095 299.277 197.421C299.987 202.255 301.904 204.446 305.025 203.989C306.966 203.705 309.008 202.09 311.161 199.142C313.308 196.194 315.24 192.677 316.946 188.584C318.655 184.485 319.991 180.24 320.935 175.901C321.889 171.543 322.138 167.8 321.678 164.683ZM355.231 197.632C353.813 199.924 352.2 202.089 350.409 204.103C348.842 205.917 347.058 207.532 345.097 208.91C343.14 210.327 340.871 211.252 338.481 211.606C333.96 212.268 329.967 211.671 326.504 209.817C323.042 207.966 320.711 204.825 319.51 200.389C317.849 203.258 315.861 205.925 313.584 208.336C311.583 210.457 309.379 212.376 307.004 214.069C304.516 215.86 301.627 217.017 298.59 217.44C296.459 217.756 294.287 217.655 292.196 217.141C290.133 216.65 288.197 215.727 286.518 214.433C284.813 213.107 283.371 211.475 282.265 209.621C281.102 207.71 280.34 205.515 279.974 203.044C279.121 197.244 279.384 191.337 280.747 185.319C282.047 179.487 284.196 173.877 287.125 168.668C290.006 163.581 293.446 159.323 297.451 155.879C301.455 152.441 305.662 150.399 310.077 149.755C313.306 149.281 316.113 149.282 318.491 149.756C320.871 150.237 322.833 150.852 324.376 151.614C326.163 152.561 327.639 153.607 328.797 154.754C329.976 154.582 331.262 154.533 332.653 154.6C334.034 154.673 335.336 154.924 336.553 155.35C337.77 155.776 338.825 156.414 339.724 157.268C340.616 158.128 341.17 159.256 341.378 160.652C341.55 161.833 341.349 163.838 340.777 166.666C340.205 169.491 339.567 172.63 338.86 176.079C338.148 179.598 337.57 183.142 337.126 186.704C336.672 190.336 336.642 193.498 337.034 196.18C337.225 197.47 337.787 198.485 338.72 199.227C339.655 199.969 340.821 200.237 342.224 200.032C343.083 199.904 343.903 199.514 344.687 198.849C345.469 198.186 346.242 197.47 347.011 196.699C347.872 195.807 348.651 194.755 349.353 193.558C349.713 192.943 350.124 192.359 350.583 191.813C351.04 191.256 351.694 190.896 352.409 190.806C353.274 190.679 354.138 190.941 355.004 191.58C355.861 192.222 356.361 192.97 356.486 193.828C356.581 194.474 356.373 195.274 355.851 196.227C355.603 196.677 355.395 197.148 355.231 197.635L355.231 197.632ZM98.3803 260.14C107.302 258.85 116.216 257.5 125.119 256.089C136.33 254.329 148.588 252.342 161.899 250.122C175.196 247.906 188.975 245.646 203.211 243.35C217.454 241.054 231.097 238.813 244.133 236.634C257.173 234.455 268.971 232.531 279.525 230.866C287.701 229.563 295.886 228.317 304.079 227.128C310.661 226.166 317.315 225.784 323.965 225.986C330.34 226.204 335.955 226.692 340.793 227.45C345.635 228.212 349.485 229.112 352.346 230.156C355.198 231.2 356.682 232.033 356.778 232.665C356.874 233.293 356.229 233.978 354.856 234.712C353.48 235.442 352.264 235.885 351.212 236.035C350.414 236.148 348.61 236.245 345.783 236.324C342.96 236.402 339.593 236.509 335.696 236.634C331.8 236.762 327.779 236.961 323.635 237.228C319.482 237.494 315.827 237.854 312.655 238.308C303.398 239.625 292.523 241.392 280.028 243.599C267.529 245.812 254.456 248.211 240.8 250.798C226.948 253.428 213.099 256.073 199.253 258.734C186.195 261.243 173.142 263.774 160.092 266.329C149.469 268.414 138.838 270.465 128.202 272.483C119.004 274.222 112.293 275.394 108.069 275.994C99.8703 277.162 92.5384 277.375 86.0828 276.632C79.6183 275.889 74.0503 274.777 69.3732 273.294C64.6899 271.813 61.0737 270.235 58.5278 268.556C55.9756 266.882 54.6411 265.623 54.5153 264.78C54.4165 264.148 54.8675 263.548 55.8596 262.978C56.8517 262.409 58.013 262.026 59.3372 261.838C60.6583 261.65 62.3449 261.626 64.3883 261.761C70.5283 262.154 76.6868 262.165 82.828 261.792C87.1144 261.557 92.2974 261.009 98.3803 260.14Z" fill="#F1584A"/>
</svg>
