<svg width="400" height="400" viewBox="0 0 400 400" fill="none" xmlns="http://www.w3.org/2000/svg">
<rect width="400" height="400" fill="#F5F5F5"/>
<g clip-path="url(#clip0)">
<path d="M50 174.375H59.4938C59.5705 178.611 63.5718 182.454 69.5342 182.454C75.0267 182.454 78.5581 179.081 78.5581 174.845C78.5581 171.079 75.3408 168.882 70.7905 167.633L64.0441 165.751C52.431 162.769 50.3908 155.788 50.3908 151.079C50.3908 141.508 58.7866 134.997 68.7503 134.997C78.6349 134.997 86.4025 141.115 86.4025 151.237H76.9087C76.9087 146.764 73.5355 143.549 68.5153 143.549C63.8859 143.549 60.0428 146.687 60.0428 150.923C60.0428 152.414 60.5081 155.553 66.7101 157.204L73.1447 159.086C81.6172 161.441 88.1287 165.833 88.1287 174.463C88.1287 184.35 79.8911 190.941 69.2993 190.941C57.7676 190.938 50 183.564 50 174.375Z" fill="#2519FF"/>
<path d="M100.444 171.167V135.939H110.017V170.774C110.017 178.463 115.117 181.838 120.844 181.838C126.492 181.838 131.592 178.463 131.592 170.774V135.939H141.165V171.167C141.165 183.564 131.671 190.941 120.844 190.941C109.938 190.939 100.444 183.564 100.444 171.167Z" fill="#2519FF"/>
<path d="M218.99 189.997H209.419L205.104 153.671L190.511 183.876H182.734L168.078 153.75L163.679 189.997H154.12L160.711 135.939H169.009L186.582 173.128L204.078 135.939H212.395L218.99 189.997Z" fill="#2519FF"/>
<path d="M294.463 189.997H284.893L280.577 153.671L265.984 183.876H258.216L243.547 153.75L239.152 189.997H229.582L236.17 135.939H244.486L262.062 173.128L279.556 135.939H287.884L294.463 189.997Z" fill="#2519FF"/>
<path d="M341.622 189.997L336.916 176.736H315.653L311.024 189.997H300.825L321.146 135.939H331.503L351.742 189.997H341.622ZM318.557 168.422H334.013L326.336 146.454L318.557 168.422Z" fill="#2519FF"/>
<path d="M60.066 254.508H81.0915V263.06H50.4932V209.003H60.066V254.508Z" fill="#2519FF"/>
<path d="M92.0068 263.06V209.003H101.568V263.06H92.0068Z" fill="#2519FF"/>
<path d="M148.011 209.003H157.584V263.06H148.874L127.3 226.655V263.06H117.729V209.003H126.751L148.011 245.096V209.003Z" fill="#2519FF"/>
<path d="M170.292 236.149C170.292 220.772 182.373 208.061 197.829 208.061C205.597 208.061 212.502 211.199 217.208 216.142L210.305 222.191C208.675 220.535 206.734 219.218 204.592 218.316C202.451 217.414 200.153 216.944 197.829 216.933C187.71 216.933 179.942 225.72 179.942 236.156C179.942 246.433 187.619 255.376 197.988 255.376C205.99 255.376 213.365 250.2 213.365 243.216H197.908V235.214H223.798C223.798 254.906 213.206 264.007 198.143 264.007C182.217 264 170.292 251.377 170.292 236.149Z" fill="#2519FF"/>
<path d="M234.939 244.231V209.003H244.51V243.837C244.51 251.514 249.609 254.899 255.336 254.899C260.987 254.899 266.086 251.526 266.086 243.837V209.003H275.657V244.231C275.657 256.625 266.163 264.005 255.336 264.005C244.433 264 234.939 256.625 234.939 244.231Z" fill="#2519FF"/>
<path d="M327.36 254.429H351.758V263.06H317.866V250.114H299.821L292.842 263.06H281.622L311.748 209.003H350.974V217.645H327.36V232.238H347.992V240.699H327.36V254.429ZM304.45 241.483H317.866V217.71H317.317L304.45 241.483Z" fill="#2519FF"/>
</g>
<defs>
<clipPath id="clip0">
<rect width="301.758" height="129" fill="white" transform="translate(50 135)"/>
</clipPath>
</defs>
</svg>
