<svg width="683" height="605" viewBox="0 0 683 605" fill="none" xmlns="http://www.w3.org/2000/svg">
<rect width="683" height="605" fill="#333A46"/>
<path d="M140.377 279.748L151.738 328.762L165.355 279.748H174.215L187.832 328.762L199.193 279.748H208.135L192.303 340H183.73L169.826 290.043L155.84 340H147.268L131.518 279.748H140.377ZM230.693 335.242C235.588 335.242 238.938 333.396 240.742 329.705C242.574 325.986 243.49 321.857 243.49 317.318C243.49 313.217 242.834 309.881 241.521 307.311C239.443 303.264 235.861 301.24 230.775 301.24C226.264 301.24 222.982 302.963 220.932 306.408C218.881 309.854 217.855 314.01 217.855 318.877C217.855 323.553 218.881 327.449 220.932 330.566C222.982 333.684 226.236 335.242 230.693 335.242ZM230.98 294.801C236.641 294.801 241.426 296.688 245.336 300.461C249.246 304.234 251.201 309.785 251.201 317.113C251.201 324.195 249.479 330.047 246.033 334.668C242.588 339.289 237.242 341.6 229.996 341.6C223.953 341.6 219.154 339.562 215.6 335.488C212.045 331.387 210.268 325.891 210.268 319C210.268 311.617 212.141 305.738 215.887 301.363C219.633 296.988 224.664 294.801 230.98 294.801ZM260.225 296.072H267.238V303.66C267.812 302.184 269.221 300.393 271.463 298.287C273.705 296.154 276.289 295.088 279.215 295.088C279.352 295.088 279.584 295.102 279.912 295.129C280.24 295.156 280.801 295.211 281.594 295.293V303.086C281.156 303.004 280.746 302.949 280.363 302.922C280.008 302.895 279.611 302.881 279.174 302.881C275.455 302.881 272.598 304.084 270.602 306.49C268.605 308.869 267.607 311.617 267.607 314.734V340H260.225V296.072ZM287.828 279.748H294.924V314.734L313.873 296.072H323.307L306.49 312.52L324.25 340H314.816L301.117 317.852L294.924 323.512V340H287.828V279.748ZM329.418 279.543H336.596V301.404C338.209 299.299 340.137 297.699 342.379 296.605C344.621 295.484 347.055 294.924 349.68 294.924C355.148 294.924 359.578 296.811 362.969 300.584C366.387 304.33 368.096 309.867 368.096 317.195C368.096 324.141 366.414 329.91 363.051 334.504C359.688 339.098 355.025 341.395 349.064 341.395C345.729 341.395 342.912 340.588 340.615 338.975C339.248 338.018 337.785 336.486 336.227 334.381V340H329.418V279.543ZM348.613 334.873C352.605 334.873 355.586 333.287 357.555 330.115C359.551 326.943 360.549 322.76 360.549 317.564C360.549 312.943 359.551 309.115 357.555 306.08C355.586 303.045 352.674 301.527 348.818 301.527C345.455 301.527 342.502 302.771 339.959 305.26C337.443 307.748 336.186 311.85 336.186 317.564C336.186 321.693 336.705 325.043 337.744 327.613C339.686 332.453 343.309 334.873 348.613 334.873ZM395.043 295.088C398.16 295.088 401.182 295.826 404.107 297.303C407.033 298.752 409.262 300.639 410.793 302.963C412.27 305.178 413.254 307.762 413.746 310.715C414.184 312.738 414.402 315.965 414.402 320.395H382.205C382.342 324.852 383.395 328.434 385.363 331.141C387.332 333.82 390.381 335.16 394.51 335.16C398.365 335.16 401.441 333.889 403.738 331.346C405.051 329.869 405.98 328.16 406.527 326.219H413.787C413.596 327.832 412.953 329.637 411.859 331.633C410.793 333.602 409.59 335.215 408.25 336.473C406.008 338.66 403.232 340.137 399.924 340.902C398.146 341.34 396.137 341.559 393.895 341.559C388.426 341.559 383.791 339.576 379.99 335.611C376.189 331.619 374.289 326.041 374.289 318.877C374.289 311.822 376.203 306.094 380.031 301.691C383.859 297.289 388.863 295.088 395.043 295.088ZM406.814 314.529C406.514 311.33 405.816 308.773 404.723 306.859C402.699 303.305 399.322 301.527 394.592 301.527C391.201 301.527 388.357 302.758 386.061 305.219C383.764 307.652 382.547 310.756 382.41 314.529H406.814ZM423.508 296.072H430.521V302.307C432.6 299.736 434.801 297.891 437.125 296.77C439.449 295.648 442.033 295.088 444.877 295.088C451.111 295.088 455.322 297.262 457.51 301.609C458.713 303.988 459.314 307.393 459.314 311.822V340H451.809V312.314C451.809 309.635 451.412 307.475 450.619 305.834C449.307 303.1 446.928 301.732 443.482 301.732C441.732 301.732 440.297 301.91 439.176 302.266C437.152 302.867 435.375 304.07 433.844 305.875C432.613 307.324 431.807 308.828 431.424 310.387C431.068 311.918 430.891 314.119 430.891 316.99V340H423.508V296.072ZM487.205 294.801C492.154 294.801 496.174 296.004 499.264 298.41C502.381 300.816 504.254 304.959 504.883 310.838H497.705C497.268 308.131 496.27 305.889 494.711 304.111C493.152 302.307 490.65 301.404 487.205 301.404C482.502 301.404 479.139 303.701 477.115 308.295C475.803 311.275 475.146 314.953 475.146 319.328C475.146 323.73 476.076 327.436 477.936 330.443C479.795 333.451 482.721 334.955 486.713 334.955C489.775 334.955 492.195 334.025 493.973 332.166C495.777 330.279 497.021 327.709 497.705 324.455H504.883C504.062 330.279 502.012 334.545 498.73 337.252C495.449 339.932 491.252 341.271 486.139 341.271C480.396 341.271 475.816 339.18 472.398 334.996C468.98 330.785 467.271 325.535 467.271 319.246C467.271 311.535 469.145 305.533 472.891 301.24C476.637 296.947 481.408 294.801 487.205 294.801ZM512.266 279.543H519.648V302.02C521.398 299.805 522.971 298.246 524.365 297.344C526.744 295.785 529.711 295.006 533.266 295.006C539.637 295.006 543.957 297.234 546.227 301.691C547.457 304.125 548.072 307.502 548.072 311.822V340H540.484V312.314C540.484 309.088 540.074 306.723 539.254 305.219C537.914 302.812 535.398 301.609 531.707 301.609C528.645 301.609 525.869 302.662 523.381 304.768C520.893 306.873 519.648 310.852 519.648 316.703V340H512.266V279.543Z" fill="#F7F7F9"/>
</svg>
